<svg version="1.1" xmlns="http://www.w3.org/2000/svg" xmlns:xlink="http://www.w3.org/1999/xlink" width="26.31818" height="85.22554" viewBox="0,0,26.31818,85.22554"><g transform="translate(-226.84091,-134.1885)"><g data-paper-data="{&quot;isPaintingLayer&quot;:true}" stroke-linejoin="miter" stroke-miterlimit="10" stroke-dasharray="" stroke-dashoffset="0" style="mix-blend-mode: normal"><path d="M227.59091,218.66404v-53.76197h24.81818v53.76197z" data-paper-data="{&quot;origPos&quot;:null}" fill="#ff0000" fill-rule="nonzero" stroke="#7e0000" stroke-width="1.5" stroke-linecap="butt"/><path d="M239.89159,171.44634v6.87138" data-paper-data="{&quot;origPos&quot;:null}" fill="none" fill-rule="nonzero" stroke="#7e0000" stroke-width="1.5" stroke-linecap="round"/><path d="M249.41223,171.38322v6.87138" data-paper-data="{&quot;origPos&quot;:null}" fill="none" fill-rule="nonzero" stroke="#7e0000" stroke-width="1.5" stroke-linecap="round"/><path d="M245.96692,179.7416h-2.01278" data-paper-data="{&quot;origPos&quot;:null}" fill="none" fill-rule="nonzero" stroke="#7e0000" stroke-width="1.5" stroke-linecap="round"/><path d="M240.85486,164.15207c0.86995,-2.1376 2.21045,-1.50075 2.21045,-1.50075c1.39819,0.50692 2.29511,1.50075 2.29511,1.50075h-4.50556" fill="#e36666" fill-rule="nonzero" stroke="none" stroke-width="1" stroke-linecap="butt"/><path d="M242.98407,162.62106c1.39819,0.50679 2.37635,1.53101 2.37635,1.53101h-4.59022" fill="none" fill-rule="evenodd" stroke="#8c4949" stroke-width="0.5" stroke-linecap="butt"/><path d="M239.40939,164.15207c1.00205,-1.02109 2.64023,-1.21143 2.64023,-1.21143c1.39819,0.50696 1.86534,1.21143 1.86534,1.21143h-4.50557" fill="#e36666" fill-rule="nonzero" stroke="none" stroke-width="1" stroke-linecap="butt"/><path d="M242.04962,162.94064c1.39819,0.50696 1.86534,1.21143 1.86534,1.21143h-4.59022" fill="none" fill-rule="evenodd" stroke="#8c4949" stroke-width="0.5" stroke-linecap="butt"/><path d="M242.43227,135.5617c1.11709,1.23544 -0.1828,2.73651 -0.1828,2.73651c0,0 -0.45658,0.90868 0.12528,1.16974c0.00796,4.34753 -0.20311,13.36869 -0.20311,13.52029c0,0.21779 0.48746,9.09452 0.53474,9.26477c0.07848,0.28214 0.35893,0.53782 0.35893,0.53782c-0.44001,-0.05456 -0.79212,-0.48343 -0.79212,-0.48343c0.10838,0.38116 0.49428,0.63308 0.49428,0.63308c-0.33179,-0.04003 -0.66359,-0.01472 -0.81259,-0.01372c-0.13535,0.00048 -1.86843,0.43553 -2.5455,1.22531h-4.08927c-0.08124,0 -3.52041,-3.62135 -3.62879,-7.89634c-0.10838,-4.27499 1.06038,-8.39348 1.94983,-10.30347c1.03259,-2.21796 2.75884,-6.4263 2.8807,-6.92673c0.12187,-0.50023 0.00455,-2.53474 0.7866,-3.54569c0.54335,-0.70249 1.60666,-1.04134 2.31087,-1.04134c0.70405,0 2.19258,0.43703 2.81295,1.1232" fill="#4d4d4d" fill-rule="nonzero" stroke="none" stroke-width="1" stroke-linecap="butt"/><path d="M242.56366,139.70411c0,0 0.68097,0.92389 1.19898,2.02502c1.1374,2.51856 1.86858,6.25589 1.46367,10.72857c-0.37339,4.12535 -0.72566,6.77282 -1.93114,8.87249c-0.16525,0.28786 0.4743,0.65725 0.4743,0.65725c-0.27086,0 -0.63028,0.03317 -0.63028,0.03317c0.02697,0.34044 0.58966,0.44323 0.58966,0.44323c-0.77863,0.38129 -1.00887,-0.15946 -1.00887,-0.15946c0.12869,0.31662 0.31018,0.48063 0.31018,0.48063c-0.21676,0.01359 -0.75702,-0.47751 -0.75702,-0.47751c0,0.36757 0.49428,0.63304 0.49428,0.63304c-3.21932,0.02093 -4.73922,-3.90739 -4.49549,-5.02373c0.24373,-1.11631 2.49155,-11.92641 2.63616,-14.32245c0.14445,-2.39621 1.65557,-3.89026 1.65557,-3.89026" fill="#fafafa" fill-rule="nonzero" stroke="none" stroke-width="1" stroke-linecap="butt"/><path d="M240.96314,142.9155c0.10841,-3.02437 1.41151,-3.44752 1.41151,-3.44752l0.53978,0.72897c-1.02509,0.13281 -1.95255,2.7553 -1.95129,2.71855" fill="#f07878" fill-rule="nonzero" stroke="none" stroke-width="1" stroke-linecap="butt"/><path d="M242.10395,138.69299c0,0 -0.14624,0.32039 0.04062,0.51742c0.23252,0.24506 3.77535,3.88435 3.1144,12.82482c-0.54176,7.32452 -1.75666,8.81169 -1.89348,9.11297c-0.09112,0.20044 -0.24922,0.51232 0.40394,0.83908c0,0 -0.4031,0.0503 -0.63028,0.03334c0,0 0.15309,0.30697 0.58966,0.44323c0,0 -0.21656,0.29488 -0.94774,0.07712" fill="none" fill-rule="evenodd" stroke="#d1d1d1" stroke-width="0.5" stroke-linecap="butt"/><path d="M242.70645,162.25301c0.06093,0.28639 0.35877,0.53782 0.35877,0.53782c-0.44001,-0.05456 -0.79212,-0.48343 -0.79212,-0.48343c0.10838,0.38116 0.49428,0.63308 0.49428,0.63308c-0.33179,-0.04003 -0.6636,-0.01472 -0.81243,-0.01372c-0.13535,0.00048 -1.86858,0.43553 -2.54563,1.22531h-4.08914c-0.08124,0 -3.52057,-3.62135 -3.62895,-7.89634c-0.10818,-4.27499 1.06058,-8.39348 1.94983,-10.30347c1.03279,-2.21796 2.75884,-6.4263 2.88071,-6.92673c0.12187,-0.50023 0.00471,-2.53474 0.78659,-3.54569c0.54354,-0.70249 1.60682,-1.04134 2.31087,-1.04134c0.70408,0 2.21728,0.41531 2.81314,1.1232" fill="none" fill-rule="evenodd" stroke="#333333" stroke-width="0.5" stroke-linecap="butt"/><path d="M241.25425,138.15526c-0.03185,0.00458 1.37641,-0.78861 1.48268,-1.42952c0.08124,-0.49012 -0.44684,-1.03139 -0.30466,-1.16404c0.09473,-0.08856 0.30644,0.38262 0.72111,0.59222c0.44375,0.22449 1.06623,0.55138 2.09184,0.69434c1.02577,0.14296 1.90937,0.41872 2.28503,0.81688c0.37583,0.39828 0.5687,0.83728 0.5687,0.83728c0,0 -0.47722,-0.74548 -3.32088,-0.45941c-2.18332,0.11225 -2.34922,0.44242 -2.67419,0.65007c-0.32497,0.20746 0.06435,-0.67048 -0.84963,-0.53782" fill="#e36666" fill-rule="nonzero" stroke="none" stroke-width="1" stroke-linecap="butt"/><path d="M241.98544,138.08377c0,0 0.09082,-0.03169 0.25217,-0.07384c0.08108,-0.02008 0.17955,-0.04442 0.29248,-0.07253c0.0567,-0.01323 0.11715,-0.0273 0.18068,-0.04215c0.06385,-0.01388 0.13243,-0.01781 0.20294,-0.02925c0.56626,-0.07711 1.32523,-0.15813 2.08858,-0.17074c0.38168,-0.0067 0.764,0.00312 1.12148,0.03529c0.1789,0.01602 0.35113,0.03938 0.51395,0.06535c0.16265,0.02892 0.31555,0.06243 0.45529,0.1c0.06873,0.02288 0.13747,0.03594 0.19872,0.06175c0.06012,0.02778 0.11731,0.05424 0.17093,0.0789c0.10448,0.05654 0.19433,0.10538 0.2629,0.15572c0.07165,0.04459 0.11959,0.09132 0.15387,0.12008c0.03379,0.02941 0.052,0.04491 0.052,0.04491c0,0 -0.02064,-0.01209 -0.05931,-0.03481c-0.03851,-0.02272 -0.09343,-0.05732 -0.16931,-0.0905c-0.07296,-0.03822 -0.16768,-0.07205 -0.27476,-0.11026c-0.10984,-0.03253 -0.2335,-0.06486 -0.36722,-0.10766c-0.13551,-0.03643 -0.28435,-0.06912 -0.44342,-0.09723c-0.15956,-0.02548 -0.32855,-0.04836 -0.50452,-0.06418c-0.3521,-0.03171 -0.73021,-0.04133 -1.10832,-0.0348c-0.7567,0.01242 -1.51161,0.09294 -2.07429,0.16973c-0.1399,0.02483 -0.27005,0.03481 -0.38574,0.04215c-0.11536,0.01014 -0.21594,0.01914 -0.29881,0.02649c-0.08287,0.00799 -0.14802,0.01436 -0.19254,0.01879c-0.04371,0.00426 -0.06776,0.0088 -0.06776,0.0088" fill="#8c4949" fill-rule="nonzero" stroke="none" stroke-width="1" stroke-linecap="butt"/><path d="M241.25425,138.15526c-0.03185,0.00458 1.37641,-0.78861 1.48268,-1.42952c0.08124,-0.49012 -0.44684,-1.03139 -0.30466,-1.16404c0.09473,-0.08856 0.30644,0.38262 0.72111,0.59222c0.44375,0.22449 1.06623,0.55138 2.09184,0.69434c1.02577,0.14296 1.90937,0.41872 2.28503,0.81688c0.37583,0.39828 0.5687,0.83728 0.5687,0.83728c0,0 -0.47722,-0.74548 -3.32088,-0.45941c-2.18332,0.11225 -2.34922,0.44242 -2.67419,0.65007c-0.32497,0.20746 0.06435,-0.67048 -0.84963,-0.53782z" fill="none" fill-rule="evenodd" stroke="#8c4949" stroke-width="0.5" stroke-linecap="butt"/><path d="M240.13716,136.29321c0.02535,-0.21435 0.33521,-0.40843 0.81243,-0.38802c0.63467,0.05099 0.73346,0.37265 0.73118,0.50026c-0.00276,0.15455 -0.04501,0.37788 -0.77115,0.37788c-0.6202,0 -0.79521,-0.29751 -0.77246,-0.49012" fill="#e2e3e4" fill-rule="nonzero" stroke="none" stroke-width="1" stroke-linecap="butt"/><path d="M241.0359,136.7768c0,0 -0.24874,-0.15309 -0.19807,-0.4442c0.05073,-0.29017 0.34869,-0.35422 0.46101,-0.34392c0.11225,0.01014 0.20246,0.10637 0.20246,0.10637c0,0 0.24048,0.18133 0.17954,0.38047c-0.06093,0.19917 -0.36218,0.28789 -0.36218,0.28789c0,0 -0.24262,0.03379 -0.28276,0.01338" fill="#2e374a" fill-rule="nonzero" stroke="none" stroke-width="1" stroke-linecap="butt"/><path d="M240.13716,136.30709c0.02535,-0.21435 0.33521,-0.40842 0.81243,-0.38801c0.63467,0.05099 0.73346,0.37267 0.73118,0.50026c-0.00276,0.15455 -0.04501,0.37787 -0.77115,0.37787c-0.6202,0 -0.79521,-0.29751 -0.77246,-0.49012z" fill="none" fill-rule="evenodd" stroke="#2e374a" stroke-width="0.25" stroke-linecap="butt"/><path d="M240.13528,145.11904c0.45515,1.87882 0.43855,5.7181 -0.2655,9.06725c-0.70401,3.34915 -3.92679,6.86167 -4.17052,6.6983c-0.24373,-0.16336 -0.16249,-0.51722 -0.10837,-1.57916c0.05427,-1.06194 -0.37908,-2.34181 -0.70402,-2.94073c-0.32497,-0.59892 -0.18965,-1.96049 -0.18965,-1.96049c0,0 1.21396,-7.18384 1.46464,-8.12604c0.3227,-1.21354 1.21295,-1.64926 1.21295,-1.64926" fill="#4d4d4d" fill-rule="nonzero" stroke="none" stroke-width="1" stroke-linecap="butt"/><path d="M240.13528,145.11904c0.45515,1.87882 0.43855,5.7181 -0.2655,9.06725c-0.70401,3.34915 -3.92679,6.86167 -4.17052,6.6983c-0.24373,-0.16336 -0.16249,-0.51722 -0.10837,-1.57916c0.05427,-1.06194 -0.37908,-2.34181 -0.70402,-2.94073c-0.32497,-0.59892 -0.18965,-1.96049 -0.18965,-1.96049c0,0 1.21396,-7.18384 1.46464,-8.12604c0.3227,-1.21354 1.21295,-1.64926 1.21295,-1.64926" fill="none" fill-rule="evenodd" stroke="#333333" stroke-width="0.5" stroke-linecap="butt"/></g></g></svg>