<svg version="1.1" xmlns="http://www.w3.org/2000/svg" xmlns:xlink="http://www.w3.org/1999/xlink" width="34.42429" height="71.3566" viewBox="0,0,34.42429,71.3566"><g transform="translate(-223.32637,-148.05744)"><g data-paper-data="{&quot;isPaintingLayer&quot;:true}" stroke-miterlimit="10" stroke-dasharray="" stroke-dashoffset="0" style="mix-blend-mode: normal"><path d="M227.59091,218.66404v-53.76197h24.81818v53.76197z" data-paper-data="{&quot;origPos&quot;:null}" fill="#ff0000" fill-rule="nonzero" stroke="#7e0000" stroke-width="1.5" stroke-linecap="butt" stroke-linejoin="miter"/><path d="M239.89159,171.44634v6.87138" data-paper-data="{&quot;origPos&quot;:null}" fill="none" fill-rule="nonzero" stroke="#7e0000" stroke-width="1.5" stroke-linecap="round" stroke-linejoin="miter"/><path d="M249.41223,178.2546v-6.87138" data-paper-data="{&quot;origPos&quot;:null}" fill="none" fill-rule="nonzero" stroke="#7e0000" stroke-width="1.5" stroke-linecap="round" stroke-linejoin="miter"/><path d="M245.96692,179.7416h-2.01278" data-paper-data="{&quot;origPos&quot;:null}" fill="none" fill-rule="nonzero" stroke="#7e0000" stroke-width="1.5" stroke-linecap="round" stroke-linejoin="miter"/><path d="M227.00932,164.1242c-1.37852,-2.6611 -0.54322,-5.15715 1.39394,-6.99823c3.07481,-1.54717 7.35903,-2.53214 12.13526,-2.53214c9.22447,0 16.73214,3.64089 16.73214,8.12762c0,4.48668 -7.50767,8.1328 -16.73214,8.1328c-0.5791,0 -1.14793,0 -1.71166,-0.04127c-4.17662,-0.91279 -9.80867,-2.8261 -11.81754,-6.68877z" fill="#c8baff" fill-rule="nonzero" stroke="none" stroke-width="1" stroke-linecap="butt" stroke-linejoin="miter"/><path d="M223.80637,162.72145c0,-2.166 1.74754,-4.12572 4.61226,-5.59548c-1.93716,1.8514 -2.77246,4.33713 -1.39394,6.99823c2.00887,3.86267 7.64091,5.77598 11.81754,6.70423c-8.45061,-0.43319 -15.03586,-3.90394 -15.03586,-8.10698z" fill="#eae4ff" fill-rule="nonzero" stroke="none" stroke-width="1" stroke-linecap="butt" stroke-linejoin="miter"/><path d="M228.40326,157.12597c3.07481,-1.54717 7.35903,-2.53214 12.13526,-2.53214c9.22447,0 16.73214,3.64089 16.73214,8.12762c0,4.48668 -7.50767,8.1328 -16.73214,8.1328c-0.5791,0 -1.14793,0 -1.71166,-0.04127c-8.43524,-0.41774 -15.02049,-3.87817 -15.02049,-8.09153c0,-2.166 1.74754,-4.13604 4.59689,-5.59548z" fill="none" fill-rule="evenodd" stroke="#24155e" stroke-width="0.96" stroke-linecap="round" stroke-linejoin="round"/><path d="M247.20062,168.69339c-0.40485,0.09282 -0.81993,0.1805 -1.25556,0.24755" fill="none" fill-rule="evenodd" stroke="#a290f0" stroke-width="1.92" stroke-linecap="round" stroke-linejoin="round"/><path d="M254.01646,165.53723c-1.53522,1.19374 -3.27103,2.10028 -5.1247,2.67655" fill="none" fill-rule="evenodd" stroke="#a290f0" stroke-width="1.92" stroke-linecap="round" stroke-linejoin="round"/><path d="M240.53852,162.72145c5.18618,0 8.46598,-1.62967 9.99829,-2.64046c0.29721,1.60389 0.4561,2.71783 0.4561,2.71783c-1.00677,0.96819 -2.21703,1.69612 -3.54118,2.12986c-2.2241,0.73747 -3.90501,0.96438 -6.9132,0.96438c-3.00819,0 -4.68911,-0.2166 -6.9132,-0.95407c-1.32509,-0.43679 -2.53544,-1.16831 -3.54118,-2.14018c0,0 0.15888,-1.11393 0.44586,-2.71783c1.53227,1.01079 4.81207,2.63528 10.00852,2.64046z" fill="#24155e" fill-rule="nonzero" stroke="#25155e" stroke-width="0.96" stroke-linecap="round" stroke-linejoin="round"/><path d="M242.92663,158.45136c-5.82166,1.25316 -8.94258,-9.14359 -8.94258,-9.14359c1.15816,-1.33057 2.73658,-0.70656 3.77178,0.39192c0.7328,0.79938 1.70138,0.97988 2.78269,0.97988c1.08131,0 2.04989,-0.1805 2.78269,-0.97988c0.4954,-0.55795 1.15084,-0.94721 1.87568,-1.11393c0.87631,3.38307 1.79874,8.98886 -2.27025,9.86561z" fill="#eae4ff" fill-rule="nonzero" stroke="none" stroke-width="1" stroke-linecap="butt" stroke-linejoin="miter"/><path d="M234.90134,148.66312c0.79946,3.82144 3.24906,10.70104 8.0253,9.49428c4.03825,-1.03143 3.0287,-5.62643 2.27025,-9.5871c0.71598,-0.12951 1.44467,0.14796 1.8961,0.72197c1.53745,1.75344 2.66487,6.60631 3.30545,9.98938c0.05639,0.27332 0.1025,0.51569 0.14861,0.78388c-1.5374,1.03143 -4.81207,2.63528 -9.99829,2.64046c-5.18618,0 -8.46598,-1.62967 -9.99825,-2.64046c0.04611,-0.25269 0.09222,-0.51574 0.14347,-0.78388c0.10763,-0.68592 1.91151,-10.07702 4.20737,-10.61853z" fill="#c8baff" fill-rule="nonzero" stroke="none" stroke-width="1" stroke-linecap="butt" stroke-linejoin="miter"/><path d="M230.67346,159.29711c0.13837,-0.70138 0.29212,-1.46462 0.46637,-2.2485c0.67132,-3.01179 1.6399,-6.35358 2.84421,-7.7357c1.20427,-1.38212 2.73658,-0.70652 3.77178,0.39196c0.7328,0.7942 1.70138,0.9747 2.78269,0.9747c1.08131,0 2.04989,-0.1805 2.78269,-0.97988c0.4954,-0.55795 1.15084,-0.94721 1.87568,-1.11393c0.71598,-0.12951 1.44467,0.14796 1.8961,0.72201c1.53745,1.7534 2.66487,6.60627 3.30545,9.98934c0.05639,0.27332 0.1025,0.51574 0.14861,0.78388c-1.5374,1.03143 -4.81207,2.63528 -9.99829,2.64046c-5.18618,0 -8.46598,-1.62967 -9.99825,-2.64046c0.0256,-0.25269 0.07171,-0.51056 0.12296,-0.78388z" fill="none" fill-rule="evenodd" stroke="#24155e" stroke-width="0.96" stroke-linecap="round" stroke-linejoin="round"/></g></g></svg>