<svg version="1.1" xmlns="http://www.w3.org/2000/svg" xmlns:xlink="http://www.w3.org/1999/xlink" width="35.49497" height="71.20421" viewBox="0,0,35.49497,71.20421"><g transform="translate(-222.46056,-148.20983)"><g data-paper-data="{&quot;isPaintingLayer&quot;:true}" stroke-linejoin="miter" stroke-miterlimit="10" stroke-dasharray="" stroke-dashoffset="0" style="mix-blend-mode: normal"><path d="M227.59094,218.66404v-53.76197h24.81818v53.76197z" data-paper-data="{&quot;origPos&quot;:null}" fill="#ff0000" fill-rule="nonzero" stroke="#7e0000" stroke-width="1.5" stroke-linecap="butt"/><path d="M239.89162,171.44634v6.87138" data-paper-data="{&quot;origPos&quot;:null}" fill="none" fill-rule="nonzero" stroke="#7e0000" stroke-width="1.5" stroke-linecap="round"/><path d="M249.41226,171.38322v6.87138" data-paper-data="{&quot;origPos&quot;:null}" fill="none" fill-rule="nonzero" stroke="#7e0000" stroke-width="1.5" stroke-linecap="round"/><path d="M243.95417,179.7416h2.01278" data-paper-data="{&quot;origPos&quot;:null}" fill="none" fill-rule="nonzero" stroke="#7e0000" stroke-width="1.5" stroke-linecap="round"/><path d="M231.74872,168.84683c-5.25513,-1.41264 -8.80815,-4.09713 -8.80815,-7.1758c0,-4.54767 7.73385,-8.23647 17.26749,-8.23647c2.62984,-0.01107 5.25195,0.28823 7.81292,0.89172c-3.3763,0.22057 -8.91974,0.64765 -12.14724,1.26245c-5.72016,1.08879 -9.3662,2.95198 -9.83123,6.31693c-0.38603,2.7314 1.86019,5.08268 5.70622,6.94117z" fill="#30f0ef" fill-rule="nonzero" stroke="none" stroke-width="1" stroke-linecap="butt"/><path d="M257.47553,161.67103c0,4.54763 -7.73385,8.23643 -17.26749,8.23643c-2.85321,0.01464 -5.69643,-0.34183 -8.45933,-1.06064c-3.84603,-1.85848 -6.09225,-4.20976 -5.70622,-6.94117c0.47897,-3.36496 4.11107,-5.22814 9.83123,-6.31693c3.2275,-0.61479 8.77094,-1.04188 12.14724,-1.26245c5.60857,1.36098 9.45456,4.13935 9.45456,7.34475z" fill="#4ffffc" fill-rule="nonzero" stroke="none" stroke-width="1" stroke-linecap="butt"/><path d="M257.47553,161.67103c0,4.54763 -7.73385,8.23643 -17.26749,8.23643c-2.85321,0.01464 -5.69643,-0.34183 -8.45933,-1.06064c-5.25513,-1.41264 -8.80815,-4.09713 -8.80815,-7.1758c0,-4.54767 7.73385,-8.23647 17.26749,-8.23647c2.62984,-0.01107 5.25195,0.28823 7.81292,0.89172c5.60857,1.36098 9.45456,4.13935 9.45456,7.34475z" fill="none" fill-rule="evenodd" stroke="#1bb0b3" stroke-width="0.96" stroke-linecap="butt"/><path d="M250.6253,158.70496c0.20305,0.81117 0.29689,1.64622 0.27902,2.48267c-2.79032,2.32778 -6.3945,3.03645 -10.69627,3.03645c-4.30177,0 -7.90595,-0.68987 -10.69627,-3.03645c-0.01301,-0.83735 0.08712,-1.67259 0.29763,-2.48267c1.40448,0.9574 4.70637,2.67509 10.39864,2.67509c5.69227,0 8.99416,-1.71769 10.41724,-2.67509z" fill="#1bb3b3" fill-rule="nonzero" stroke="#1bb3b3" stroke-width="0.96" stroke-linecap="butt"/><path d="M240.20806,150.81579c-1.60435,0.028 -3.19418,-0.31052 -4.65055,-0.99022c1.44969,-0.76969 3.06857,-1.15715 4.70637,-1.12639c0.53362,0.0007 1.06662,0.0383 1.59515,0.11264c1.06254,0.15621 2.09012,0.49761 3.0368,1.00906c-1.46698,0.68801 -3.07044,1.02832 -4.68776,0.99492z" fill="#ffffff" fill-rule="nonzero" stroke="none" stroke-width="1" stroke-linecap="butt"/><path d="M248.99761,159.6295c-1.78581,0.85886 -4.65988,1.75055 -8.76166,1.75055c-5.69224,0 -9.0081,-1.73645 -10.40326,-2.67509c0.04187,-0.20647 0.09302,-0.41768 0.14417,-0.63355c0.66501,-2.67979 2.19041,-6.39675 5.58065,-8.24583c1.45637,0.6797 3.0462,1.01822 4.65055,0.99022c1.61418,0.03197 3.2143,-0.30831 4.67844,-0.99492c3.3949,1.83968 4.92958,5.56135 5.58065,8.25053c0.05119,0.21587 0.10234,0.42708 0.14417,0.63355c-0.5135,0.34967 -1.05302,0.6588 -1.61371,0.92454z" fill="#4ffffc" fill-rule="nonzero" stroke="none" stroke-width="1" stroke-linecap="butt"/><path d="M250.61132,158.6956c-0.52201,0.35577 -1.07089,0.66964 -1.64164,0.9386c-1.78581,0.85886 -4.65984,1.75055 -8.76162,1.75055c-5.69227,0 -9.00348,-1.73645 -10.39864,-2.67509c0.03721,-0.20651 0.08836,-0.41768 0.13955,-0.63355c0.89755,-3.7076 3.46462,-9.38628 10.25909,-9.38628c0.53366,0.00054 1.06662,0.03818 1.59515,0.11264c5.60854,0.82131 7.84081,5.87109 8.66394,9.26895c0.05119,0.21587 0.10234,0.42708 0.14417,0.62419z" fill="none" fill-rule="evenodd" stroke="#1bb0b3" stroke-width="0.96" stroke-linecap="butt"/><path d="M247.37919,162.07466c0.15151,1.48686 0.1093,2.98736 -0.12557,4.46315c-0.28372,1.46791 -0.85789,2.86295 -1.68813,4.10179l-3.08795,0.27693c0,0 1.67419,-2.63757 2.19041,-4.87617c0.2215,-1.0799 0.30746,-2.18365 0.25576,-3.28522z" fill="#80fffd" fill-rule="nonzero" stroke="#1bb0b3" stroke-width="0.768" stroke-linecap="butt"/><path d="M252.22507,160.09884c0.4418,1.62851 0.87894,3.77798 0.41392,3.77798c-2.05555,-0.0235 -5.05515,-1.50652 -5.05515,-1.50652l-0.25114,-0.93864l-0.25114,-0.9386c0,0 1.84162,-2.81118 3.59951,-3.88592c0.40925,-0.24873 1.10219,1.86318 1.544,3.49169z" fill="#80fffd" fill-rule="nonzero" stroke="#1bb0b3" stroke-width="0.768" stroke-linecap="butt"/><path d="M239.80347,159.59668c2.05555,0.02816 5.05515,1.51118 5.05515,1.51118l0.24648,0.93864l0.25114,0.9386c0,0 -1.86023,2.81588 -3.59955,3.88592c-0.40459,0.24873 -1.10216,-1.83968 -1.53934,-3.46823c-0.43714,-1.62851 -0.88823,-3.8108 -0.41388,-3.8061z" fill="#80fffd" fill-rule="nonzero" stroke="#1bb0b3" stroke-width="0.768" stroke-linecap="butt"/><path d="M244.73718,161.75551l-1.16729,-0.05632" fill="none" fill-rule="evenodd" stroke="#56b1b3" stroke-width="0.96" stroke-linecap="butt"/><path d="M243.9466,163.14469l0.99519,-0.62889" fill="none" fill-rule="evenodd" stroke="#56b1b3" stroke-width="0.96" stroke-linecap="butt"/><path d="M248.79762,160.18802l-1.03244,0.70397" fill="none" fill-rule="evenodd" stroke="#56b1b3" stroke-width="0.96" stroke-linecap="butt"/><path d="M249.165,161.67103l-1.19518,-0.01876" fill="none" fill-rule="evenodd" stroke="#56b1b3" stroke-width="0.96" stroke-linecap="butt"/><path d="M248.02564,161.9057c0.44922,0.9936 1.05372,1.90789 1.79043,2.70791c1.17432,1.05648 2.43614,2.00953 3.77161,2.84874l-2.3253,1.40794c-1.28117,-0.57491 -2.4224,-1.42542 -3.34371,-2.49204c-0.94501,-1.15156 -1.73618,-2.42333 -2.35318,-3.78268z" fill="#62cacc" fill-rule="nonzero" stroke="#1bb0b3" stroke-width="0.768" stroke-linecap="butt"/><path d="M245.68314,163.16668c-0.47704,0.1292 -0.86375,0.23393 -0.86375,0.23393l-0.72481,-2.67621c0,0 0.38671,-0.10474 0.86375,-0.23393l1.3932,-0.37733c0.47704,-0.1292 0.86375,-0.23393 0.86375,-0.23393l0.72481,2.67621c0,0 -0.38671,0.10474 -0.86375,0.23393z" fill="#62cacc" fill-rule="nonzero" stroke="#1bb0b3" stroke-width="0.76384" stroke-linecap="butt"/></g></g></svg>