<svg version="1.1" xmlns="http://www.w3.org/2000/svg" xmlns:xlink="http://www.w3.org/1999/xlink" width="34.49579" height="77.3115" viewBox="0,0,34.49579,77.3115"><g transform="translate(-218.6633,-142.10254)"><g data-paper-data="{&quot;isPaintingLayer&quot;:true}" fill-rule="nonzero" stroke-linejoin="miter" stroke-miterlimit="10" stroke-dasharray="" stroke-dashoffset="0" style="mix-blend-mode: normal"><path d="M227.59091,218.66404v-53.76197h24.81818v53.76197z" data-paper-data="{&quot;origPos&quot;:null}" fill="#ff0000" stroke="#7e0000" stroke-width="1.5" stroke-linecap="butt"/><path d="M239.89159,171.44634v6.87138" data-paper-data="{&quot;origPos&quot;:null}" fill="none" stroke="#7e0000" stroke-width="1.5" stroke-linecap="round"/><path d="M249.41223,171.38322v6.87138" data-paper-data="{&quot;origPos&quot;:null}" fill="none" stroke="#7e0000" stroke-width="1.5" stroke-linecap="round"/><path d="M243.95414,179.7416h2.01278" data-paper-data="{&quot;origPos&quot;:null}" fill="none" stroke="#7e0000" stroke-width="1.5" stroke-linecap="round"/><g stroke="none" stroke-width="1.15528" stroke-linecap="butt"><g><path d="M226.97282,148.62155l17.05165,14.62242l-17.32656,6.93037l0.27492,-21.55279" fill="#00a100"/><path d="M226.82537,160.18568l0.06682,-5.22906c0.17408,-0.10515 0.3613,-0.19475 0.56023,-0.26574c1.60312,-0.57209 3.3671,0.26403 3.93919,1.86714c0.5721,1.60316 -0.26356,3.36694 -1.86714,3.93919c-0.93541,0.33381 -1.92331,0.18566 -2.6991,-0.31153z" fill="#8100ff"/><path d="M235.44329,156.88199c0.33319,-0.1189 0.67455,-0.15821 1.00641,-0.13338l2.19921,1.88563c0.28423,1.20218 -0.363,2.45122 -1.5539,2.8762c-1.27848,0.45624 -2.6843,-0.2105 -3.14039,-1.48855c-0.45607,-1.27801 0.21003,-2.68414 1.48868,-3.1399z" fill="#2ec7ff"/><path d="M231.32327,161.44793c0.50877,-0.18156 1.04321,-0.13942 1.49637,0.07502c0.45288,0.21502 0.82387,0.60207 1.00543,1.11084c0.18156,0.50877 0.13942,1.04321 -0.07501,1.49641c-0.21503,0.45284 -0.60203,0.82385 -1.1108,1.00541c-0.50881,0.18157 -1.04326,0.13939 -1.49641,-0.07501c-0.4529,-0.21506 -0.82387,-0.60207 -1.00543,-1.11084c-0.18156,-0.50877 -0.13943,-1.04325 0.07501,-1.49641c0.21502,-0.45288 0.60203,-0.82385 1.11084,-1.00543z" fill="#ffff00"/><path d="M231.64369,167.92238c0.02884,0.08081 0.0515,0.16286 0.07344,0.24412l-5.01923,2.00785l0.04606,-3.63309c0.26546,-0.21366 0.56862,-0.38972 0.90768,-0.51072c1.62469,-0.57979 3.41241,0.26758 3.99204,1.89184z" fill="#ffb903"/><path d="M241.48208,164.26111l-4.7487,1.89913c-0.17216,-0.22002 -0.31376,-0.46922 -0.41279,-0.74671c-0.49485,-1.38669 0.22804,-2.91181 1.61473,-3.40666c1.38669,-0.49485 2.91181,0.22804 3.40666,1.61473c0.07547,0.21149 0.11904,0.42578 0.14009,0.63952z" fill="#dc5991"/><path d="M228.57496,149.99582l3.02226,2.59176c-0.22786,0.3076 -0.54605,0.55379 -0.93358,0.69209c-1.04001,0.37114 -2.18382,-0.17141 -2.5548,-1.21099c-0.26666,-0.74724 -0.05629,-1.54372 0.46612,-2.07287z" fill="#ff6b00"/></g><path d="M228.09482,145.55781l2.7322,0.8171l-2.67083,0.61596l3.46651,3.02805l-3.95874,-1.55036l2.21273,5.25443l-3.67691,-5.35408l-4.50286,2.54701l2.58589,-3.46568l-5.61951,-1.06602l6.03532,-0.84157l-1.8721,-3.44011l3.17429,3.05034l3.49278,-2.93881l-1.39876,3.34374" fill="#2ec7ff"/><path d="M225.78173,172.06861l-0.08875,-4.21371l2.39811,1.2669l1.64228,-2.08962l1.49038,0.70646l1.27827,-1.87116l1.73734,1.14886l1.16879,-3.29156l2.52956,1.26355l1.32852,-1.97717l2.80247,0.41539l1.13813,-3.50235l2.41403,4.53459l-3.36267,0.49178l-1.21619,2.29194l-2.72929,-0.70679l-1.63101,2.61617l-3.27789,-0.51049l-1.31204,2.76807l-1.66447,-1.44111l-1.54102,1.8768l-1.73153,-0.88564l-1.373,1.1091" fill="#2ec7ff"/></g></g></g></svg>