<svg version="1.1" xmlns="http://www.w3.org/2000/svg" xmlns:xlink="http://www.w3.org/1999/xlink" width="35.67785" height="71.0558" viewBox="0,0,35.67785,71.0558"><g transform="translate(-226.84091,-148.35825)"><g data-paper-data="{&quot;isPaintingLayer&quot;:true}" fill-rule="nonzero" stroke-miterlimit="10" stroke-dasharray="" stroke-dashoffset="0" style="mix-blend-mode: normal"><path d="M227.59091,218.66405v-53.76197h24.81818v53.76197z" data-paper-data="{&quot;origPos&quot;:null}" fill="#ff0000" stroke="#7e0000" stroke-width="1.5" stroke-linecap="butt" stroke-linejoin="miter"/><path d="M239.89159,178.31773v-6.87138" data-paper-data="{&quot;origPos&quot;:null}" fill="none" stroke="#7e0000" stroke-width="1.5" stroke-linecap="round" stroke-linejoin="miter"/><path d="M249.41223,171.38323v6.87138" data-paper-data="{&quot;origPos&quot;:null}" fill="none" stroke="#7e0000" stroke-width="1.5" stroke-linecap="round" stroke-linejoin="miter"/><path d="M243.95414,179.74161h2.01278" data-paper-data="{&quot;origPos&quot;:null}" fill="none" stroke="#7e0000" stroke-width="1.5" stroke-linecap="round" stroke-linejoin="miter"/><path d="M228.12738,173.05935l-1.09468,-5.84365l22.34792,-4.18203l1.09469,5.84364z" fill="#800000" stroke="none" stroke-width="NaN" stroke-linecap="butt" stroke-linejoin="miter"/><path d="M242.24972,152.67684l1.73282,-3.96789l2.94349,4.01416c0,0 3.22472,0.82542 4.52597,1.76883c1.19197,0.86739 2.16519,2.00085 2.84232,3.31029c0,0 3.09658,-0.2866 4.47219,1.71317c1.37561,1.99977 1.37093,6.89197 -5.30696,11.29595c-6.67789,4.40398 -13.34495,4.76709 -17.86823,1.52232c-4.52328,-3.24477 -2.3642,-10.27435 -2.47329,-9.85721l-3.86688,-6.95934l6.36622,1.21907c0.96728,-0.89081 2.05982,-1.63513 3.24282,-2.2093c0.66228,-0.31705 1.93228,-0.74258 2.54733,-0.9472z" fill="#fa1e9f" stroke="none" stroke-width="1" stroke-linecap="butt" stroke-linejoin="miter"/><path d="M254.195,158.0912c0,0 2.89531,-0.43728 4.27092,1.56249c1.49536,1.95086 1.23489,6.90097 -5.12535,10.94234c-1.54635,1.05097 -3.19506,1.94278 -4.92097,2.6618c-3.37659,1.42559 -7.95281,0.82613 -9.48293,-3.71869c-0.88367,-2.61986 2.43105,-3.74074 2.43105,-3.74074l2.54062,-1.87595c0,0 3.0949,-0.51879 4.62466,-1.56273c0.85795,-0.44379 1.2755,-1.43785 0.99179,-2.36118l3.08877,-2.47241l1.28404,0.40707z" fill="#ffffff" stroke="none" stroke-width="1" stroke-linecap="butt" stroke-linejoin="miter"/><path d="M260.53902,155.87284c-0.34481,0.64687 -0.80145,1.22756 -1.34877,1.71519c-0.76515,0.61764 -1.57263,1.18086 -2.41655,1.68556" fill="none" stroke="#8f2265" stroke-width="0.84" stroke-linecap="round" stroke-linejoin="round"/><path d="M262.09876,160.45214c-0.57947,0.29123 -1.18669,0.52362 -1.81253,0.69368c-0.76758,0.23398 -1.56497,0.35572 -2.36741,0.3614" fill="none" stroke="#8f2265" stroke-width="0.84" stroke-linecap="round" stroke-linejoin="round"/><path d="M237.1456,157.17096l-2.66253,-0.58927" fill="none" stroke="#8f2265" stroke-width="0.84" stroke-linecap="round" stroke-linejoin="round"/><path d="M242.27802,152.74614l1.73282,-3.96789l2.94349,4.01416c0,0 3.22471,0.82541 4.52597,1.76882c1.19197,0.86739 2.16519,2.00086 2.84232,3.3103c0,0 3.09657,-0.28661 4.47218,1.71317c1.37561,1.99977 1.37094,6.89198 -5.30695,11.29595c-6.67789,4.40398 -13.34495,4.76709 -17.86823,1.52232c-4.52328,-3.24477 -2.36421,-10.27435 -2.47329,-9.85721l-3.86688,-6.95934l6.36623,1.21907c0.96728,-0.89081 2.05981,-1.63513 3.24281,-2.2093c0.66228,-0.31705 1.93228,-0.74258 2.54733,-0.9472z" fill="none" stroke="#8f2265" stroke-width="0.84" stroke-linecap="round" stroke-linejoin="round"/><path d="M234.62535,170.72872c0,0 -1.31556,0.77016 -2.01775,1.10351c-0.77299,0.31654 -1.56209,0.59218 -2.36406,0.82577" fill="none" stroke="#8f2265" stroke-width="0.84" stroke-linecap="round" stroke-linejoin="round"/><path d="M228.35921,168.95646c0.93462,-0.15084 1.88285,-0.19974 2.82802,-0.14587c0.97595,0.02698 1.94683,0.15048 2.89846,0.36872" fill="none" stroke="#8f2265" stroke-width="0.84" stroke-linecap="round" stroke-linejoin="round"/><path d="M250.56896,154.91467c1.81865,1.25994 2.67367,3.23946 1.87307,4.35819c-0.8006,1.11873 -2.92288,1.054 -4.75783,-0.24586c-1.83495,-1.29986 -2.67367,-3.23945 -1.87307,-4.35818c0.8006,-1.11873 2.93918,-1.01409 4.75783,0.24585z" fill="#ffffff" stroke="#8f2265" stroke-width="0.84" stroke-linecap="round" stroke-linejoin="round"/><path d="M250.76238,156.56669c0.23708,0.20184 0.32744,0.52767 0.2282,0.82279c-0.09924,0.29513 -0.36811,0.50014 -0.67898,0.51772c-0.31087,0.01758 -0.60115,-0.15581 -0.73304,-0.43786c-0.1378,-0.15983 -0.20458,-0.36888 -0.18495,-0.57898c0.01963,-0.21012 0.12398,-0.40318 0.28899,-0.53472c0.36361,-0.23683 0.84881,-0.14903 1.10639,0.20018" fill="#414142" stroke="none" stroke-width="1" stroke-linecap="butt" stroke-linejoin="miter"/><path d="M241.81375,159.93417c1.81865,1.25994 2.5466,3.3845 1.6225,4.77102c-0.9241,1.38652 -3.18431,1.44021 -5.01926,0.14036c-1.83495,-1.29986 -2.5466,-3.3845 -1.6225,-4.77102c0.9241,-1.38652 3.20061,-1.40031 5.01926,-0.14037z" fill="#ffffff" stroke="#8f2265" stroke-width="0.84" stroke-linecap="round" stroke-linejoin="round"/><path d="M241.95591,161.87881c0.16732,0.38359 0.01277,0.83139 -0.35554,1.03011c-0.19305,0.08107 -0.41185,0.07391 -0.59919,-0.0196c-0.18734,-0.09351 -0.32458,-0.26409 -0.37582,-0.46711c-0.16732,-0.38359 -0.01277,-0.83139 0.35553,-1.03011c0.4034,-0.13157 0.83771,0.08522 0.97502,0.48671" fill="#414142" stroke="none" stroke-width="1" stroke-linecap="butt" stroke-linejoin="miter"/><path d="M247.81845,162.09265c0.63267,-0.35154 1.35213,-1.25082 1.78161,-0.54133c0.13041,0.31933 0.00311,1.90828 -0.64586,2.21989c-0.64897,0.31161 -2.61326,-0.05051 -2.81788,-0.66556c-0.20462,-0.61505 1.11598,-0.68865 1.68212,-1.01301z" fill="#5e435c" stroke="#8f2265" stroke-width="0.84" stroke-linecap="round" stroke-linejoin="round"/><path d="M249.89855,168.55431c-2.06864,1.17934 -3.01951,1.61567 -3.01951,1.61567" data-paper-data="{&quot;index&quot;:null}" fill="#ffffff" stroke="#8f2265" stroke-width="0.84" stroke-linecap="round" stroke-linejoin="round"/></g></g></svg>