<svg version="1.1" xmlns="http://www.w3.org/2000/svg" xmlns:xlink="http://www.w3.org/1999/xlink" width="31.43014" height="70.37898" viewBox="0,0,31.43014,70.37898"><g transform="translate(-226.36441,-149.03506)"><g data-paper-data="{&quot;isPaintingLayer&quot;:true}" stroke-miterlimit="10" stroke-dasharray="" stroke-dashoffset="0" style="mix-blend-mode: normal"><path d="M227.59091,218.66405v-53.76197h24.81818v53.76197z" data-paper-data="{&quot;origPos&quot;:null}" fill="#ff0000" fill-rule="nonzero" stroke="#7e0000" stroke-width="1.5" stroke-linecap="butt" stroke-linejoin="miter"/><path d="M239.89159,178.31773v-6.87138" data-paper-data="{&quot;origPos&quot;:null}" fill="none" fill-rule="nonzero" stroke="#7e0000" stroke-width="1.5" stroke-linecap="round" stroke-linejoin="miter"/><path d="M249.41223,171.38323v6.87138" data-paper-data="{&quot;origPos&quot;:null}" fill="none" fill-rule="nonzero" stroke="#7e0000" stroke-width="1.5" stroke-linecap="round" stroke-linejoin="miter"/><path d="M245.96692,179.74161h-2.01278" data-paper-data="{&quot;origPos&quot;:null}" fill="none" fill-rule="nonzero" stroke="#7e0000" stroke-width="1.5" stroke-linecap="round" stroke-linejoin="miter"/><path d="M235.328,151.14595c-0.18782,-0.71289 0.23784,-1.44306 0.95074,-1.63088c0.71289,-0.18782 1.44306,0.23784 1.63088,0.95074c0.18782,0.71289 -0.23784,1.44306 -0.95074,1.63088c-0.71289,0.18782 -1.44306,-0.23784 -1.63088,-0.95074z" fill="#c9e2b3" fill-rule="nonzero" stroke="#959914" stroke-width="0.96" stroke-linecap="butt" stroke-linejoin="miter"/><path d="M253.4853,161.58304c2.65741,0.88787 4.82083,3.62361 3.35559,5.86228c-1.46524,2.23867 -5.96431,3.85471 -10.89015,3.77205c-2.75308,-0.04372 -5.45417,-0.75696 -7.86988,-2.07822z" fill="#e9e96d" fill-rule="nonzero" stroke="#959914" stroke-width="0.96" stroke-linecap="butt" stroke-linejoin="miter"/><path d="M245.78463,153.52866c2.61792,2.19564 4.45364,4.90874 6.29016,9.61438c-0.94131,0.88582 -1.98306,1.65843 -3.10401,2.30197c-0.94447,-2.5672 -2.0911,-5.05542 -3.42908,-7.44128c-2.32802,-4.0105 -7.10538,-7.46911 -8.87175,-7.00375c1.19414,-0.32356 2.4252,-0.49086 3.66236,-0.49782c1.98186,0.67906 3.82778,1.70374 5.45232,3.02651z" fill="#dcdb1e" fill-rule="nonzero" stroke="none" stroke-width="1" stroke-linecap="butt" stroke-linejoin="miter"/><path d="M253.49347,161.55495c-0.43293,0.55253 -0.90423,1.07382 -1.41052,1.56c-1.84164,-4.72505 -3.67223,-7.41873 -6.29016,-9.61438c-1.6291,-1.31365 -3.47773,-2.32875 -5.46049,-2.99841c9.5768,-0.01136 13.29393,10.86731 13.16116,11.05278z" fill="#b2b336" fill-rule="nonzero" stroke="none" stroke-width="1" stroke-linecap="butt" stroke-linejoin="miter"/><path d="M245.52891,157.95521c1.33797,2.38586 2.48461,4.87407 3.42908,7.44128c-2.42212,1.34104 -5.01358,2.35019 -7.70474,3.0003c-1.58217,0.42618 -3.18955,0.7526 -4.81265,0.97731c-0.65054,-2.6641 -1.08735,-5.37591 -1.3062,-8.10955c-0.35702,-4.3689 0.61839,-10.02294 1.53554,-10.26457c1.77608,-0.46792 6.54373,2.99325 8.85896,6.95523z" fill="#ffff00" fill-rule="nonzero" stroke="none" stroke-width="1" stroke-linecap="butt" stroke-linejoin="miter"/><path d="M235.14591,161.30823c0.22486,2.72578 0.66641,5.42933 1.32049,8.08502c-3.34054,0.43898 -6.40669,0.24521 -9.20644,-0.92691c-0.26541,-0.10133 -2.90123,-14.22289 9.40998,-17.46635c-0.91715,0.24163 -1.89256,5.89567 -1.52403,10.30824z" fill="#c7cc00" fill-rule="nonzero" stroke="none" stroke-width="1" stroke-linecap="butt" stroke-linejoin="miter"/><path d="M253.49832,161.55367c-1.24076,1.5673 -2.77397,2.87892 -4.51453,3.86197c-2.42212,1.34104 -5.01358,2.35019 -7.70474,3.0003c-1.58217,0.42618 -3.18955,0.7526 -4.81265,0.97731c-3.34054,0.43898 -6.40669,0.24521 -9.20644,-0.92691c-0.26541,-0.10133 -2.90123,-14.22289 9.40998,-17.46635c12.30636,-3.24219 16.97059,10.34497 16.82837,10.55369z" fill="none" fill-rule="evenodd" stroke="#959914" stroke-width="0.96" stroke-linecap="butt" stroke-linejoin="miter"/><path d="M256.15981,165.17532c0.24692,0.66147 0.14091,1.51972 -0.70254,2.29721" fill="none" fill-rule="evenodd" stroke="#ffffff" stroke-width="1.272" stroke-linecap="round" stroke-linejoin="round"/><path d="M255.13697,163.79454c0.19554,0.14274 0.37085,0.31127 0.5212,0.50099" fill="none" fill-rule="evenodd" stroke="#ffffff" stroke-width="1.272" stroke-linecap="round" stroke-linejoin="round"/><path d="M228.82981,167.3431c-0.0901,-0.67684 -0.10604,-1.07223 -0.10604,-1.07223" fill="none" fill-rule="evenodd" stroke="#a5a505" stroke-width="1.92" stroke-linecap="round" stroke-linejoin="round"/><path d="M228.52432,164.87424c-0.03595,-1.43372 0.13582,-2.86509 0.50991,-4.2496" fill="none" fill-rule="evenodd" stroke="#a5a505" stroke-width="1.92" stroke-linecap="round" stroke-linejoin="round"/><path d="M242.79528,164.91315c-0.75227,0.17856 -1.54453,0.05576 -2.20745,-0.34216c-0.26773,-0.10292 -0.45159,-0.35167 -0.47128,-0.63783c-0.01974,-0.28619 0.12817,-0.55782 0.37926,-0.69649c0.25109,-0.13867 0.5598,-0.11924 0.79152,0.04986c0.41002,0.27959 0.94164,0.30763 1.37879,0.07267c0.20969,-0.12314 0.32843,-0.35711 0.30404,-0.59905c-0.04475,-0.16984 -0.08806,-0.70852 -1.44053,-0.72065c-0.9629,0.04437 -1.85359,-0.50916 -2.24019,-1.39219c-0.27996,-0.78588 -0.03513,-1.66288 0.61138,-2.19016c0.72468,-0.56478 1.68749,-0.72062 2.55334,-0.41322c0.25024,0.08427 0.43652,0.29561 0.48871,0.55444c0.05215,0.25884 -0.03774,0.52582 -0.23581,0.70043c-0.19809,0.17457 -0.47429,0.23026 -0.72452,0.14599c0,0 -0.71601,-0.21614 -1.09394,0.12214c-0.11798,0.10373 -0.30514,0.31911 -0.21184,0.57476c0.0933,0.25565 0.34622,0.42774 0.86728,0.43576c2.41935,-0.03541 2.86112,1.40504 2.9305,1.98356c0.09179,0.798 -0.27476,1.5795 -0.94705,2.01912c-0.22353,0.15152 -0.47108,0.2641 -0.7322,0.33302z" fill="#ffa1a1" fill-rule="nonzero" stroke="#7d8011" stroke-width="0.636" stroke-linecap="butt" stroke-linejoin="miter"/></g></g></svg>