<svg version="1.1" xmlns="http://www.w3.org/2000/svg" xmlns:xlink="http://www.w3.org/1999/xlink" width="37.60306" height="76.20484" viewBox="0,0,37.60306,76.20484"><g transform="translate(-216.38491,-143.2092)"><g data-paper-data="{&quot;isPaintingLayer&quot;:true}" stroke-linejoin="miter" stroke-miterlimit="10" stroke-dasharray="" stroke-dashoffset="0" style="mix-blend-mode: normal"><path d="M227.59091,218.66404v-53.76197h24.81818v53.76197z" data-paper-data="{&quot;origPos&quot;:null}" fill="#ff0000" fill-rule="nonzero" stroke="#7e0000" stroke-width="1.5" stroke-linecap="butt"/><path d="M239.89159,171.44634v6.87138" data-paper-data="{&quot;origPos&quot;:null}" fill="none" fill-rule="nonzero" stroke="#7e0000" stroke-width="1.5" stroke-linecap="round"/><path d="M249.41223,178.2546v-6.87138" data-paper-data="{&quot;origPos&quot;:null}" fill="none" fill-rule="nonzero" stroke="#7e0000" stroke-width="1.5" stroke-linecap="round"/><path d="M243.95414,179.7416h2.01278" data-paper-data="{&quot;origPos&quot;:null}" fill="none" fill-rule="nonzero" stroke="#7e0000" stroke-width="1.5" stroke-linecap="round"/><g data-paper-data="{&quot;index&quot;:null}" stroke-linecap="butt"><g stroke="none" stroke-width="1"><path d="M226.88834,169.13428c-1.56025,-3.23497 -0.10898,-6.96243 -2.87397,-11.04171c-2.77123,-4.07853 -4.41788,-8.41954 -3.77978,-9.96455c0.63184,-1.54426 2.37026,0.22664 3.0339,0.63949c0.87248,0.5437 6.651,3.01547 15.80607,4.18345c9.15595,1.16602 10.9716,7.88636 10.9716,7.88636c-14.2675,-0.69413 -23.15838,8.2955 -23.15782,8.29696z" fill="#458ef9" fill-rule="evenodd"/><g fill="#1f1287" fill-rule="evenodd"><path d="M248.23068,157.61716c0,0 -12.60409,-1.74683 -22.13837,8.39761l-0.16853,-2.29584c0,0 7.2237,-8.13734 20.5867,-7.80735z"/><path d="M241.38122,153.27391c0,0 -10.92787,1.01092 -15.67994,7.45749l-1.01253,-1.53588c0,0 5.3706,-6.47278 13.16078,-6.80058z"/><path d="M229.44514,151.42793c0,0 -5.1392,1.99538 -5.65466,5.62878l-1.21628,-1.28136c0,0 -0.1024,-3.32847 4.99833,-5.19602l2.09461,0.91044"/><path d="M223.26849,148.76751c0,0 -2.34864,1.39631 -2.41777,3.19974l-1.00943,-2.66113l2.42267,-1.72468z"/></g><path d="M250.02736,161.22027c-4.35957,-0.21049 -8.65448,0.47183 -12.7631,2.03033c-6.34658,2.40741 -10.06722,6.11776 -10.10407,6.15472l-0.3825,0.38464l-0.23657,-0.48954c-0.68962,-1.4286 -0.81176,-2.91005 -0.94574,-4.4789c-0.17489,-2.08334 -0.35652,-4.23637 -1.89945,-6.51299c-2.49609,-3.67748 -4.61055,-8.4039 -3.81691,-10.32623c0.16476,-0.40055 0.41088,-0.66456 0.73079,-0.78591c0.81198,-0.30801 1.75929,0.41573 2.44711,0.94413c0.16332,0.12348 0.3038,0.23426 0.41634,0.30152c0.66674,0.41662 6.39376,2.94731 15.65032,4.12767c9.30294,1.18574 11.27501,8.09783 11.29288,8.16654l0.13734,0.50915zM220.58875,148.27428c-0.50555,1.22396 0.78126,5.24362 3.74266,9.60286c1.65656,2.44194 1.85474,4.79871 2.02854,6.87918c0.11327,1.31088 0.21711,2.55802 0.66184,3.7218c1.13965,-1.03617 4.60596,-3.91162 9.97124,-5.9468c4.03117,-1.52911 8.23532,-2.23442 12.5082,-2.101c-0.61753,-1.55444 -3.05173,-6.15467 -10.47481,-7.10007c-9.51385,-1.21408 -15.23023,-3.7816 -15.96125,-4.23783c-0.12652,-0.07836 -0.28843,-0.20238 -0.47343,-0.34391c-0.45598,-0.34556 -1.29669,-0.99157 -1.71128,-0.83431c-0.11479,0.04354 -0.21326,0.16457 -0.29172,0.36007z" fill="#000000" fill-rule="nonzero"/></g><path d="M220.96102,144.09461c0.63437,0.2664 1.15706,0.77052 1.41336,1.44621c0.2563,0.67568 0.19942,1.3996 -0.09866,2.0197c-0.29953,0.6207 -0.8406,1.14102 -1.55217,1.41093c-0.71153,0.2699 -1.4616,0.23934 -2.0974,-0.02657c-0.6344,-0.26639 -1.15708,-0.77046 -1.41339,-1.44615c-0.2563,-0.67568 -0.19944,-1.39964 0.09869,-2.01976c0.29949,-0.62069 0.84059,-1.14101 1.55212,-1.41091c0.71157,-0.26991 1.46159,-0.23935 2.09743,0.02655z" fill="#4a3ced" fill-rule="evenodd" stroke="#000000" stroke-width="1.77082"/><g stroke="none" stroke-width="1"><path d="M251.6421,165.76701c-15.54065,0.03336 -22.71219,8.61526 -22.71219,8.61526c0,0 -0.93915,0.86825 -1.30642,1.00755c-1.62681,0.61709 -0.94513,-3.08428 -0.94513,-3.08428c-1.91199,-1.14711 0.39289,-4.13828 1.66084,-5.43315c1.27086,-1.29602 2.97581,-2.75834 8.95139,-5.1054c5.97702,-2.34767 12.44065,-1.86373 13.79657,-1.32618c1.35495,0.53954 0.7564,1.99408 0.7564,1.99408c4.66063,3.47013 -0.20091,3.33357 -0.20147,3.33211z" fill="#4a3ced" fill-rule="evenodd"/><path d="M226.28408,172.46002c-0.38576,-0.29019 -0.60992,-0.67773 -0.67152,-1.15162c-0.2276,-1.78108 2.01346,-4.17045 2.46428,-4.63025c1.30389,-1.32987 3.07554,-2.824 9.05636,-5.17472l0.24763,-0.09561c5.97644,-2.26701 12.35762,-1.79278 13.77233,-1.22995c0.46202,0.18411 0.781,0.47989 0.94825,0.87757c0.20039,0.47207 0.13044,0.97123 0.05686,1.26171c1.21593,0.7613 1.83113,1.60443 1.82969,2.50919c-0.00263,1.52874 -2.62533,1.26824 -2.62533,1.26824c-4.45882,0.03391 -8.64664,0.78227 -12.45255,2.22594c-5.87172,2.22728 -9.04898,5.4624 -9.67656,6.14846c0,0 -1.03087,1.02443 -1.50395,1.18748c-0.53878,0.18468 -0.89355,-0.08441 -1.18072,-0.51703c-0.57017,-0.85854 -0.37061,-2.16664 -0.26477,-2.6794zM227.05702,174.80061c0.52249,0.64199 1.59423,-0.59486 1.59423,-0.59486c0.13193,-0.15838 3.31694,-3.90514 10.04367,-6.45674c3.94076,-1.49482 8.28191,-2.25867 12.90159,-2.26662l0.2345,-0.00036c0,0 1.54629,0.16996 1.54835,-0.65951c0.0007,-0.72067 -0.58329,-1.42959 -1.73408,-2.10565l-0.2284,-0.13489c0,0 -0.62727,-0.37742 -1.67974,-0.46559c0,0 0.75101,-0.2783 1.83962,0.00453c0.05076,-0.20797 0.0939,-0.53116 -0.03385,-0.82896c-0.10474,-0.24583 -0.30438,-0.4261 -0.61333,-0.54846c-1.18525,-0.47264 -7.45293,-0.99811 -13.33183,1.2319l-0.24188,0.09342c-5.86658,2.30572 -7.58435,3.75158 -8.84356,5.03493c-1.2438,1.26769 -2.43563,3.03586 -2.29504,4.12462c0.03447,0.2856 0.18758,0.50321 0.40596,0.68948c0.60707,-0.83086 1.29438,-1.09977 1.29438,-1.09977c-0.72926,0.76402 -0.94784,1.46392 -0.94784,1.46392l-0.01492,0.00403l-0.0315,0.12023c-0.11688,0.4316 -0.39275,1.75058 0.13367,2.39436z" fill="#000000" fill-rule="nonzero"/></g></g></g></g></svg>