<svg version="1.1" xmlns="http://www.w3.org/2000/svg" xmlns:xlink="http://www.w3.org/1999/xlink" width="218.40615" height="35.37081" viewBox="0,0,218.40615,35.37081"><g transform="translate(-229.65259,-312)"><g data-paper-data="{&quot;isPaintingLayer&quot;:true}" fill-rule="nonzero" stroke="none" stroke-width="1" stroke-linecap="butt" stroke-linejoin="miter" stroke-miterlimit="10" stroke-dasharray="" stroke-dashoffset="0" style="mix-blend-mode: normal"><g data-paper-data="{&quot;origPos&quot;:null}" fill="#000000"><path d="M258.14,322.78c-2.13,0 -2.46,-1.77 -2.46,-3.86c0,-2.09 0.42,-3.89 2.76,-3.89c0.59801,-0.01049 1.18809,0.1379 1.71,0.43v0.94c-0.48474,-0.29837 -1.04087,-0.46072 -1.61,-0.47c-1.27,0 -1.87,0.85 -1.87,2.44v1.11c0,1.78 0.68,2.39 1.59,2.39c0.41979,-0.00011 0.83268,-0.10677 1.2,-0.31v-2h-1.13v-0.88h2v3.48c-0.64643,0.43227 -1.41291,0.64926 -2.19,0.62z"/><path d="M264.51,317.89h-0.32c-0.7425,0.04816 -1.31313,0.6763 -1.29,1.42v3.34h-0.9v-5.65h0.85v0.88v0c0.25317,-0.59139 0.82695,-0.98173 1.47,-1h0.22z"/><path d="M266.38,316.13c-0.33105,-0.05698 -0.57295,-0.34409 -0.57295,-0.68c0,-0.33591 0.24191,-0.62302 0.57295,-0.68c0.33105,0.05698 0.57295,0.34409 0.57295,0.68c0,0.33592 -0.24191,0.62302 -0.57295,0.68zM265.94,322.63v-5.63h0.89v5.59z"/><path d="M270.13,317.88v4.75h-0.89v-4.75h-1.15v-0.88h1.15v-0.74c0,-1.07 0.5,-1.69 1.44,-1.69c0.22202,0.00585 0.443,0.03263 0.66,0.08v0.82c-0.15357,-0.03943 -0.31145,-0.05959 -0.47,-0.06c-0.48,0 -0.69,0.37 -0.69,0.95v0.64h1.31v0.84z"/><path d="M274.39,317.88v4.75h-0.89v-4.75h-1.15v-0.88h1.15v-0.74c0,-1.07 0.5,-1.69 1.44,-1.69c0.22202,0.00585 0.44301,0.03263 0.66,0.08l-0.05,0.82c-0.15357,-0.03943 -0.31145,-0.05959 -0.47,-0.06c-0.48,0 -0.69,0.37 -0.69,0.95v0.64h1.31v0.84z"/><path d="M279.24,322.78c-0.58729,0.01423 -1.12951,-0.31345 -1.39,-0.84v0v3h-0.85v-7.94h0.84v0.79v0c0.28513,-0.577 0.87646,-0.9388 1.52,-0.93c1.38,0 1.84,1.27 1.84,2.91c0,1.64 -0.53,3.01 -1.96,3.01zM280.24,319.46c0,-1 -0.46,-1.7 -1.17,-1.7c-0.75327,0.09884 -1.29531,0.77308 -1.23,1.53v1c0,0.94 0.59,1.6 1.19,1.6c0.85,0 1.21,-0.8 1.21,-1.77z"/><path d="M285.55,322.63l-0.06,-0.81v0c-0.29194,0.58979 -0.88246,0.97324 -1.54,1c-0.42462,0.02429 -0.83802,-0.14169 -1.12795,-0.45288c-0.28992,-0.31119 -0.42629,-0.73528 -0.37205,-1.15713c0,-1.15 0.83,-1.84 2.18,-1.84c0.2747,0.00275 0.54881,0.02614 0.82,0.07v-0.66c0,-0.7 -0.41,-1 -1.08,-1c-0.52393,0.01346 -1.03617,0.15785 -1.49,0.42l-0.05,-0.84c0.51959,-0.2878 1.10617,-0.43272 1.7,-0.42c1.06,0 1.81,0.4 1.81,1.84v2.34c0,0.58 0,1.27 0,1.54zM285.44,320.11c-0.2496,-0.05376 -0.50477,-0.07726 -0.76,-0.07c-0.59,0 -1.34,0.24 -1.34,1.06c-0.02379,0.23014 0.0545,0.45915 0.21421,0.62655c0.15971,0.1674 0.38478,0.25639 0.61579,0.24345c0.75331,-0.09332 1.30717,-0.75184 1.27,-1.51z"/><path d="M289.91,322.78c-0.86,0 -1.22,-0.52 -1.22,-1.46v-3.44h-1.14v-0.88h1.14v-1.43l0.9,-0.14v1.57h1.31v0.84h-1.3v3.37c0,0.43 0.17,0.69 0.58,0.69c0.23913,-0.00944 0.47386,-0.06727 0.69,-0.17l0.05,0.77c-0.31142,0.16785 -0.6566,0.26355 -1.01,0.28z"/><path d="M294,322.78c-1.5,0 -1.94,-1.2 -1.94,-2.94c0,-1.74 0.52,-2.94 2,-2.94c0.41899,0.00194 0.82984,0.11588 1.19,0.33l-0.05,0.85c-0.33415,-0.19694 -0.71235,-0.30696 -1.1,-0.32c-0.68,0 -1.16,0.61 -1.16,1.74v0.68c0,1.17 0.55,1.74 1.18,1.74c0.4019,-0.00924 0.79324,-0.13046 1.13,-0.35l0.05,0.85c-0.39045,0.24079 -0.84131,0.36564 -1.3,0.36z"/><path d="M299.87,322.63v-3.54c0,-0.64 -0.15,-1.28 -1,-1.28c-0.68426,0.04079 -1.22544,0.59496 -1.25,1.28v3.54h-0.89v-7.88h0.89v3v0c0.35023,-0.51357 0.91936,-0.83508 1.54,-0.87c1.08,0 1.58,0.67 1.58,1.87v3.86z"/><path d="M307,322.77c-1.56,0 -2.11,-1.12 -2.11,-2.91c0,-1.79 0.59,-3 2.15,-3c1.56,0 2.1,1.12 2.1,2.91c0,1.79 -0.61,3 -2.14,3zM308.22,319.42c0,-1.05 -0.41,-1.7 -1.19,-1.7c-0.78,0 -1.22,0.69 -1.22,1.74v0.79c0,1.05 0.42,1.7 1.2,1.7c0.78,0 1.21,-0.68 1.21,-1.73z"/><path d="M313.82,322.63v-3.54c0,-0.64 -0.15,-1.28 -1,-1.28c-0.68426,0.04079 -1.22544,0.59496 -1.25,1.28v3.54h-0.89v-5.63h0.85v0.77v0c0.34046,-0.54449 0.92831,-0.88521 1.57,-0.91c1.07,0 1.57,0.65 1.57,1.87v3.86z"/><path d="M321.58,320v2.6h-0.91v-2.6l-2.19,-4.86h1l1.65,3.94v0l1.65,-3.94h1z"/><path d="M326.29,322.77c-1.56,0 -2.11,-1.12 -2.11,-2.91c0,-1.79 0.58,-3 2.15,-3c1.57,0 2.1,1.12 2.1,2.91c0,1.79 -0.59,3 -2.14,3zM327.51,319.42c0,-1.05 -0.42,-1.7 -1.19,-1.7c-0.77,0 -1.22,0.69 -1.22,1.74v0.79c0,1.05 0.42,1.7 1.19,1.7c0.77,0 1.22,-0.68 1.22,-1.73z"/><path d="M333.14,322.63l-0.08,-0.77v0c-0.33022,0.53706 -0.90081,0.88015 -1.53,0.92c-1,0 -1.54,-0.66 -1.54,-1.88v-3.9h0.89v3.55c0,0.62 0.16,1.27 1,1.27c0.67279,-0.05138 1.19651,-0.60538 1.21,-1.28v-3.54h0.88v4.22c0,0.53 0,1.14 0,1.37z"/><path d="M337.29,316.07v6.56h-0.91v-6.56h-1.82v-0.9h4.54v0.9z"/><path d="M342.87,322.63l-0.08,-0.77v0c-0.33724,0.5299 -0.90383,0.8706 -1.53,0.92c-1,0 -1.54,-0.66 -1.54,-1.88v-3.9h0.89v3.55c0,0.62 0.16,1.27 1,1.27c0.67102,-0.05172 1.19163,-0.60703 1.2,-1.28v-3.54h0.89v4.22c0,0.53 0,1.14 0,1.37z"/><path d="M347.77,322.78c-0.62412,0.01049 -1.19284,-0.35681 -1.44,-0.93v0l-0.05,0.78h-0.82c0,-0.22 0,-0.87 0,-1.61v-6.27h0.89v3v0c0.29775,-0.54667 0.87781,-0.87923 1.5,-0.86c1.38,0 1.81,1.27 1.81,2.91c0,1.64 -0.46,2.98 -1.89,2.98zM348.77,319.46c0,-1 -0.47,-1.7 -1.18,-1.7c-0.74776,0.0988 -1.28534,0.76857 -1.22,1.52v1c0,0.94 0.59,1.6 1.19,1.6c0.86,0 1.21,-0.8 1.21,-1.77z"/><path d="M355,320.08h-3.1v0.21c0,0.84 0.35,1.64 1.36,1.64c0.52642,-0.00592 1.04138,-0.15453 1.49,-0.43v0.85c-0.48818,0.29433 -1.05012,0.44349 -1.62,0.43c-1.73,0 -2.17,-1.22 -2.17,-2.93c0,-1.71 0.64,-3 2.16,-3c1,0 1.87,0.59 1.87,2.56c0.01,0.14 0.01,0.51 0.01,0.67zM353.13,317.67c-0.87,0 -1.25,0.85 -1.25,1.67h2.29c0.01,-0.86 -0.17,-1.67 -1.03,-1.67z"/><path d="M358.83,319.92v-0.84h2.6v0.84z"/><path d="M367.06,322.78c-0.60974,0.00781 -1.21049,-0.14756 -1.74,-0.45l0.05,-1c0.48134,0.32788 1.04771,0.50856 1.63,0.52c1,0 1.41,-0.55 1.41,-1.22c0,-0.67 -0.53,-1 -1.21,-1.33l-0.24,-0.1c-0.98843,-0.25984 -1.65735,-1.17959 -1.6,-2.2c-0.0273,-0.56349 0.1946,-1.11046 0.60676,-1.49566c0.41217,-0.3852 0.97288,-0.56964 1.53323,-0.50434c0.54032,-0.01621 1.07525,0.11149 1.55,0.37l-0.05,1c-0.43493,-0.25534 -0.92607,-0.39959 -1.43,-0.42c-0.78,0 -1.27,0.34 -1.27,1.09c0,0.75 0.42,1 1.15,1.28l0.25,0.11c0.99639,0.26425 1.6798,1.1796 1.65,2.21c0.02381,0.60139 -0.2153,1.18337 -0.65504,1.59431c-0.43974,0.41093 -1.03655,0.61013 -1.63496,0.54569z"/><path d="M372.58,322.78c-1.49,0 -1.94,-1.2 -1.94,-2.94c0,-1.74 0.53,-2.94 2.05,-2.94c0.41566,0.00324 0.82296,0.11715 1.18,0.33l-0.05,0.85c-0.33103,-0.19574 -0.70569,-0.30573 -1.09,-0.32c-0.69,0 -1.17,0.61 -1.17,1.74v0.68c0,1.17 0.55,1.74 1.19,1.74c0.39883,-0.00896 0.78704,-0.13028 1.12,-0.35l0.05,0.85c-0.40148,0.24932 -0.86763,0.37455 -1.34,0.36z"/><path d="M377.85,317.89h-0.32c-0.7425,0.04816 -1.31313,0.6763 -1.29,1.42v3.34h-0.89v-5.65h0.85v0.88v0c0.25317,-0.59139 0.82696,-0.98173 1.47,-1h0.22z"/><path d="M382,322.63l-0.06,-0.81v0c-0.29025,0.59129 -0.88178,0.9754 -1.54,1c-0.42462,0.02429 -0.83802,-0.14169 -1.12794,-0.45288c-0.28992,-0.31119 -0.42629,-0.73528 -0.37206,-1.15713c0,-1.15 0.83,-1.84 2.19,-1.84c0.27141,0.00207 0.54225,0.02548 0.81,0.07v-0.66c0,-0.7 -0.4,-1 -1.07,-1c-0.52393,0.01346 -1.03617,0.15785 -1.49,0.42l-0.05,-0.84c0.51905,-0.28915 1.10601,-0.43417 1.7,-0.42c1,0 1.8,0.4 1.8,1.84v2.34c0,0.58 0,1.27 0,1.54zM381.89,320.11c-0.24932,-0.05559 -0.50472,-0.07912 -0.76,-0.07c-0.59,0 -1.33,0.24 -1.33,1.06c-0.02379,0.23014 0.0545,0.45915 0.21421,0.62655c0.15971,0.1674 0.38478,0.25639 0.61579,0.24345c0.74932,-0.09809 1.29766,-0.75523 1.26,-1.51z"/><path d="M386.36,322.78c-0.86,0 -1.21,-0.52 -1.21,-1.46v-3.44h-1.15v-0.88h1.15v-1.43l0.9,-0.14v1.57h1.31v0.84h-1.31v3.37c0,0.43 0.16,0.69 0.58,0.69c0.23875,-0.01204 0.47298,-0.06975 0.69,-0.17l0.05,0.77c-0.31168,0.16722 -0.65671,0.26287 -1.01,0.28z"/><path d="M390.42,322.78c-1.49,0 -1.93,-1.2 -1.93,-2.94c0,-1.74 0.52,-2.94 2,-2.94c0.41593,0.00128 0.82374,0.11533 1.18,0.33v0.85c-0.33482,-0.1954 -0.71262,-0.3053 -1.1,-0.32c-0.68,0 -1.16,0.61 -1.16,1.74v0.68c0,1.17 0.55,1.74 1.18,1.74c0.39883,-0.00896 0.78704,-0.13028 1.12,-0.35l0.05,0.85c-0.40148,0.24932 -0.86763,0.37455 -1.34,0.36z"/><path d="M396.32,322.63v-3.54c0,-0.64 -0.14,-1.28 -1,-1.28c-0.68818,0.03582 -1.23503,0.59134 -1.26,1.28v3.54h-0.88v-7.88h0.88v3v0c0.35023,-0.51357 0.91936,-0.83508 1.54,-0.87c1.09,0 1.58,0.67 1.58,1.87v3.86z"/><path d="M403.78,316.07v6.56h-0.91v-6.56h-1.82v-0.9h4.54v0.9z"/><path d="M409.36,322.63l-0.08,-0.77v0c-0.33724,0.5299 -0.90383,0.8706 -1.53,0.92c-1,0 -1.54,-0.66 -1.54,-1.88v-3.9h0.89v3.55c0,0.62 0.16,1.27 1,1.27c0.67102,-0.05172 1.19163,-0.60703 1.2,-1.28v-3.54h0.89v4.22c0,0.53 0,1.14 0,1.37z"/><path d="M413.75,322.78c-0.86,0 -1.21,-0.52 -1.21,-1.46v-3.44h-1.15v-0.88h1.15v-1.43l0.9,-0.14v1.57h1.31v0.84h-1.31v3.37c0,0.43 0.17,0.69 0.58,0.69c0.23894,-0.01078 0.47341,-0.06854 0.69,-0.17l0.05,0.77c-0.31168,0.16722 -0.65671,0.26287 -1.01,0.28z"/><path d="M418,322.77c-1.56,0 -2.11,-1.12 -2.11,-2.91c0,-1.79 0.59,-3 2.15,-3c1.56,0 2.1,1.12 2.1,2.91c0,1.79 -0.59,3 -2.14,3zM419.22,319.42c0,-1.05 -0.41,-1.7 -1.19,-1.7c-0.78,0 -1.22,0.69 -1.22,1.74v0.79c0,1.05 0.42,1.7 1.2,1.7c0.78,0 1.21,-0.68 1.21,-1.73z"/><path d="M424.2,317.89h-0.32c-0.7425,0.04816 -1.31313,0.6763 -1.29,1.42v3.34h-0.89v-5.65h0.85v0.88v0c0.25317,-0.59139 0.82695,-0.98173 1.47,-1h0.22z"/><path d="M426.07,316.13c-0.28523,0.03752 -0.56381,-0.10587 -0.69903,-0.3598c-0.13522,-0.25393 -0.09869,-0.56511 0.09165,-0.78082c0.19034,-0.21572 0.49455,-0.29071 0.76334,-0.18816c0.26879,0.10255 0.44575,0.3611 0.44404,0.64878c0.01094,0.16982 -0.04619,0.33701 -0.15878,0.46461c-0.11259,0.1276 -0.27136,0.20511 -0.44122,0.2154zM425.63,322.63v-5.63h0.88v5.59z"/><path d="M431.08,322.63l-0.06,-0.81v0c-0.29194,0.58979 -0.88246,0.97324 -1.54,1c-0.42462,0.02429 -0.83802,-0.14169 -1.12795,-0.45288c-0.28992,-0.31119 -0.42629,-0.73528 -0.37205,-1.15713c0,-1.15 0.82,-1.84 2.18,-1.84c0.2747,0.00275 0.54881,0.02614 0.82,0.07v-0.66c0,-0.7 -0.41,-1 -1.08,-1c-0.52393,0.01346 -1.03617,0.15785 -1.49,0.42v-0.84c0.51905,-0.28915 1.10601,-0.43417 1.7,-0.42c1.06,0 1.81,0.4 1.81,1.84v2.34c0,0.58 0,1.27 0,1.54zM430.97,320.11c-0.2496,-0.05376 -0.50478,-0.07726 -0.76,-0.07c-0.59,0 -1.34,0.24 -1.34,1.06c-0.02379,0.23014 0.0545,0.45915 0.21421,0.62655c0.15971,0.1674 0.38478,0.25639 0.61579,0.24345c0.75331,-0.09332 1.30717,-0.75184 1.27,-1.51z"/><path d="M433.65,322.63v-7.88h0.89v7.88z"/><path d="M437.53,322.77c-0.5097,0.00343 -1.01079,-0.13135 -1.45,-0.39l0.05,-0.85c0.39724,0.27564 0.86664,0.42863 1.35,0.44c0.76,0 1,-0.38 1,-0.81c0,-0.43 -0.33,-0.71 -0.9,-1l-0.32,-0.15c-0.71569,-0.21116 -1.20252,-0.87392 -1.19,-1.62c0,-0.91 0.59,-1.54 1.77,-1.54c0.45686,-0.00189 0.90584,0.11898 1.3,0.35l-0.05,0.86c-0.36035,-0.24802 -0.783,-0.39006 -1.22,-0.41c-0.63,0 -0.89,0.28 -0.89,0.68c0,0.4 0.29,0.66 0.91,0.93l0.32,0.14c0.7218,0.20672 1.20902,0.87975 1.18,1.63c0.02,1.08 -0.6,1.74 -1.86,1.74z"/></g><path d="M248.24,312.46c0.89504,0.23595 1.59405,0.93496 1.83,1.83c0.30522,1.64877 0.44924,3.32333 0.43,5c0.01009,1.67632 -0.13385,3.35002 -0.43,5c-0.23345,0.90058 -0.932,1.60677 -1.83,1.85c-1.64,0.42 -8.17,0.42 -8.17,0.42c0,0 -6.5,0 -8.15,-0.44c-0.89504,-0.24569 -1.59431,-0.94496 -1.84,-1.84c-0.56987,-3.30897 -0.56987,-6.69103 0,-10c0.25361,-0.89461 0.94818,-1.59673 1.84,-1.86c1.64,-0.42 8.15,-0.42 8.15,-0.42c0,0 6.53,0 8.17,0.46zM238,322.42l5.42,-3.12l-5.42,-3.13z" data-paper-data="{&quot;origPos&quot;:null}" fill="#ff0000"/><path d="M248.24,333.27081c0.89504,0.23595 1.59405,0.93496 1.83,1.83c0.30522,1.64877 0.44924,3.32333 0.43,5c0.01009,1.67632 -0.13385,3.35002 -0.43,5c-0.23345,0.90058 -0.932,1.60677 -1.83,1.85c-1.64,0.42 -8.17,0.42 -8.17,0.42c0,0 -6.5,0 -8.15,-0.44c-0.89504,-0.24569 -1.59431,-0.94496 -1.84,-1.84c-0.56987,-3.30897 -0.56987,-6.69103 0,-10c0.25361,-0.89461 0.94818,-1.59673 1.84,-1.86c1.64,-0.42 8.15,-0.42 8.15,-0.42c0,0 6.53,0 8.17,0.46zM238,343.23081l5.42,-3.12l-5.42,-3.13z" data-paper-data="{&quot;origPos&quot;:null}" fill="#ff0000"/><text transform="translate(254.89834,343.75224) scale(0.23079,0.26398)" font-size="40" xml:space="preserve" data-paper-data="{&quot;origPos&quot;:null}" fill="#000000" fill-rule="nonzero" stroke="none" stroke-width="1" stroke-linecap="butt" stroke-linejoin="miter" stroke-miterlimit="10" stroke-dasharray="" stroke-dashoffset="0" font-family="Sans Serif" font-weight="normal" text-anchor="start" style="mix-blend-mode: normal"><tspan x="0" dy="0">Ezlambry on YouTube - Let's Plays and More</tspan></text></g></g></svg>