<svg version="1.1" xmlns="http://www.w3.org/2000/svg" xmlns:xlink="http://www.w3.org/1999/xlink" width="31.42889" height="76.22409" viewBox="0,0,31.42889,76.22409"><g transform="translate(-226.84091,-143.18995)"><g data-paper-data="{&quot;isPaintingLayer&quot;:true}" fill-rule="nonzero" stroke-linejoin="miter" stroke-miterlimit="10" stroke-dasharray="" stroke-dashoffset="0" style="mix-blend-mode: normal"><path d="M227.59091,218.66404v-53.76197h24.81818v53.76197z" data-paper-data="{&quot;origPos&quot;:null}" fill="#ff0000" stroke="#7e0000" stroke-width="1.5" stroke-linecap="butt"/><path d="M239.89159,171.44634v6.87138" data-paper-data="{&quot;origPos&quot;:null}" fill="none" stroke="#7e0000" stroke-width="1.5" stroke-linecap="round"/><path d="M249.41223,171.38322v6.87138" data-paper-data="{&quot;origPos&quot;:null}" fill="none" stroke="#7e0000" stroke-width="1.5" stroke-linecap="round"/><path d="M243.95414,179.7416h2.01278" data-paper-data="{&quot;origPos&quot;:null}" fill="none" stroke="#7e0000" stroke-width="1.5" stroke-linecap="round"/><path d="M255.06119,157.9292l-15.71805,-8.41003" fill="none" stroke="#ff8080" stroke-width="1" stroke-linecap="round"/><path d="M234.5606,164.2701v-20.58015h9.50043v20.58015z" fill="#ff0000" stroke="#7e0000" stroke-width="1" stroke-linecap="butt"/><path d="M239.26932,148.82547v-2.63037" fill="none" stroke="#7e0000" stroke-width="1" stroke-linecap="round"/><path d="M242.91383,148.80131v-2.63037" fill="none" stroke="#7e0000" stroke-width="1" stroke-linecap="round"/><path d="M241.59496,149.37054h-0.77049" fill="none" stroke="#7e0000" stroke-width="1" stroke-linecap="round"/><path d="M252.13218,157.67234c0,-1.55678 1.26202,-2.81881 2.81881,-2.81881c1.55678,0 2.81881,1.26202 2.81881,2.81881c0,1.55678 -1.26202,2.81881 -2.81881,2.81881c-1.55678,0 -2.81881,-1.26202 -2.81881,-2.81881z" fill="#ff0000" stroke="#7e0000" stroke-width="1" stroke-linecap="butt"/></g></g></svg>