<svg version="1.1" xmlns="http://www.w3.org/2000/svg" xmlns:xlink="http://www.w3.org/1999/xlink" width="573" height="408" viewBox="0,0,573,408"><defs><radialGradient cx="240" cy="180" r="285.5" gradientUnits="userSpaceOnUse" id="color-1"><stop offset="0" stop-color="#000000" stop-opacity="0"/><stop offset="1" stop-color="#000000"/></radialGradient></defs><g transform="translate(46.5,24)"><g data-paper-data="{&quot;isPaintingLayer&quot;:true}" fill="url(#color-1)" fill-rule="nonzero" stroke="#000000" stroke-width="2" stroke-linecap="butt" stroke-linejoin="miter" stroke-miterlimit="10" stroke-dasharray="" stroke-dashoffset="0" style="mix-blend-mode: normal"><path d="M-41.5,383c-2.20914,0 -4,-1.79086 -4,-4v-398c0,-2.20914 1.79086,-4 4,-4h563c2.20914,0 4,1.79086 4,4v398c0,2.20914 -1.79086,4 -4,4z"/><path d="M-41.5,383c-2.20914,0 -4,-1.79086 -4,-4v-398c0,-2.20914 1.79086,-4 4,-4h563c2.20914,0 4,1.79086 4,4v398c0,2.20914 -1.79086,4 -4,4z"/><path d="M-41.5,383c-2.20914,0 -4,-1.79086 -4,-4v-398c0,-2.20914 1.79086,-4 4,-4h563c2.20914,0 4,1.79086 4,4v398c0,2.20914 -1.79086,4 -4,4z"/></g></g></svg>