<svg xmlns="http://www.w3.org/2000/svg" xmlns:xlink="http://www.w3.org/1999/xlink" version="1.1" width="310.39269171782854" height="106.15559302398088" viewBox="-24.171345823151487 -25.071346335751432 310.39269171782854 106.15559302398088">
  <!-- Exported by Scratch - http://scratch.mit.edu/ -->
  <g id="ID0.3033289019949734">
    <path id="ID0.6242901738733053" fill="#FF0000" stroke="none" d="M 9.1382 0.0094 L 253.0786 0.0094 L 253.0786 56.0129 L 9.1382 56.0129 L 9.1382 0.0094 Z " stroke-width="1.8141245513874757"/>
    <path id="ID0.6242901738733053" fill="#FF0000" stroke="none" d="M 0.9031 7.7925 L 261.143 7.7925 L 261.143 48.095 L 0.9031 48.095 L 0.9031 7.7925 Z " stroke-width="1.8534811527723793"/>
    <path id="ID0.08023543935269117" fill="#FF0000" stroke="none" d="M 253.1 39.9 C 255.321 39.9 257.333 40.802 258.791 42.259 C 260.248 43.717 261.15 45.729 261.15 47.95 C 261.15 50.171 260.248 52.183 258.791 53.641 C 257.333 55.098 255.321 56 253.1 56 C 250.879 56 248.867 55.098 247.409 53.641 C 245.952 52.183 245.05 50.171 245.05 47.95 C 245.05 45.729 245.952 43.717 247.409 42.259 C 248.867 40.802 250.879 39.9 253.1 39.9 Z " stroke-width="1"/>
    <path id="ID0.08023543935269117" fill="#FF0000" stroke="none" d="M 253.1 0 C 255.321 0 257.333 0.902 258.791 2.359 C 260.248 3.817 261.15 5.829 261.15 8.05 C 261.15 10.271 260.248 12.283 258.791 13.741 C 257.333 15.198 255.321 16.1 253.1 16.1 C 250.879 16.1 248.867 15.198 247.409 13.741 C 245.952 12.283 245.05 10.271 245.05 8.05 C 245.05 5.829 245.952 3.817 247.409 2.359 C 248.867 0.902 250.879 0 253.1 0 Z " stroke-width="1"/>
    <path id="ID0.08023543935269117" fill="#FF0000" stroke="none" d="M 8.95 0 C 11.171 0 13.183 0.902 14.641 2.359 C 16.098 3.817 17 5.829 17 8.05 C 17 10.271 16.098 12.283 14.641 13.741 C 13.183 15.198 11.171 16.1 8.95 16.1 C 6.729 16.1 4.717 15.198 3.259 13.741 C 1.802 12.283 0.9 10.271 0.9 8.05 C 0.9 5.829 1.802 3.817 3.259 2.359 C 4.717 0.902 6.729 0 8.95 0 Z " stroke-width="1"/>
    <path id="ID0.08023543935269117" fill="#FF0000" stroke="none" d="M 8.95 39.9 C 11.171 39.9 13.183 40.802 14.641 42.259 C 16.098 43.717 17 45.729 17 47.95 C 17 50.171 16.098 52.183 14.641 53.641 C 13.183 55.098 11.171 56 8.95 56 C 6.729 56 4.717 55.098 3.259 53.641 C 1.802 52.183 0.9 50.171 0.9 47.95 C 0.9 45.729 1.802 43.717 3.259 42.259 C 4.717 40.802 6.729 39.9 8.95 39.9 Z " stroke-width="1"/>
  </g>
  <g id="ID0.9647951400838792">
    <g id="ID0.9028080487623811">
      <path id="ID0.9353303448297083" fill="#FF9400" stroke="#000000" stroke-width="2.016801831781355" d="M 8.8163 5.1 C 9.588 5.1 10.2865 5.408 10.7928 5.906 C 11.2992 6.404 11.6123 7.091 11.6123 7.85 C 11.6123 8.609 11.2992 9.296 10.7928 9.794 C 10.2865 10.292 9.588 10.6 8.8163 10.6 C 8.0446 10.6 7.3461 10.292 6.8398 9.794 C 6.3335 9.296 6.0203 8.609 6.0203 7.85 C 6.0203 7.091 6.3335 6.404 6.8398 5.906 C 7.3461 5.408 8.0446 5.1 8.8163 5.1 Z "/>
      <path id="ID0.9353303448297083" fill="#FF9400" stroke="#000000" stroke-width="2.016801831781355" d="M 8.8163 45.6 C 9.588 45.6 10.2865 45.908 10.7928 46.406 C 11.2992 46.904 11.6123 47.591 11.6123 48.35 C 11.6123 49.109 11.2992 49.796 10.7928 50.294 C 10.2865 50.792 9.588 51.1 8.8163 51.1 C 8.0446 51.1 7.3461 50.792 6.8398 50.294 C 6.3335 49.796 6.0203 49.109 6.0203 48.35 C 6.0203 47.591 6.3335 46.904 6.8398 46.406 C 7.3461 45.908 8.0446 45.6 8.8163 45.6 Z "/>
      <path id="ID0.9353303448297083" fill="#FF9400" stroke="#000000" stroke-width="2.016801831781355" d="M 253.3438 45.6 C 254.1155 45.6 254.814 45.908 255.3203 46.406 C 255.8266 46.904 256.1398 47.591 256.1398 48.35 C 256.1398 49.109 255.8266 49.796 255.3203 50.294 C 254.814 50.792 254.1155 51.1 253.3438 51.1 C 252.5721 51.1 251.8736 50.792 251.3672 50.294 C 250.8609 49.796 250.5477 49.109 250.5477 48.35 C 250.5477 47.591 250.8609 46.904 251.3672 46.406 C 251.8736 45.908 252.5721 45.6 253.3438 45.6 Z "/>
      <path id="ID0.9353303448297083" fill="#FF9400" stroke="#000000" stroke-width="2.016801831781355" d="M 253.2428 5.1 C 254.0145 5.1 254.713 5.408 255.2193 5.906 C 255.7257 6.404 256.0388 7.091 256.0388 7.85 C 256.0388 8.609 255.7257 9.296 255.2193 9.794 C 254.713 10.292 254.0145 10.6 253.2428 10.6 C 252.4711 10.6 251.7726 10.292 251.2663 9.794 C 250.7599 9.296 250.4468 8.609 250.4468 7.85 C 250.4468 7.091 250.7599 6.404 251.2663 5.906 C 251.7726 5.408 252.4711 5.1 253.2428 5.1 Z "/>
    </g>
    <g id="ID0.7787115625105798">
      <path id="ID0.6648060264997184" fill="#FF9400" stroke="#000000" stroke-width="2.059685380912406" d="M 6.089 9.0617 L 256.1465 9.0617 L 256.1465 46.9837 L 6.089 46.9837 L 6.089 9.0617 Z "/>
      <path id="ID0.9526808271184564" fill="#FF9400" stroke="#000000" stroke-width="2.0364629317828964" d="M 10.0818 5.1219 L 251.9705 5.1219 L 251.9705 51.026 L 10.0818 51.026 L 10.0818 5.1219 Z "/>
    </g>
    <g id="ID0.47862354200333357">
      <path id="ID0.05322626233100891" fill="#FF9400" stroke="none" d="M 8.3897 6.1106 L 253.5831 6.1106 L 253.5831 50.1103 L 8.3897 50.1103 L 8.3897 6.1106 Z " stroke-width="29.3996450028271"/>
      <path id="ID0.28816465847194195" fill="#FF9400" stroke="none" d="M 6.9784 7.9 L 255.1474 7.9 L 255.1474 48 L 6.9784 48 L 6.9784 7.9 Z " stroke-width="50.14269171782855"/>
    </g>
  </g>
  <g id="ID0.05247157858684659">
    <path id="ID0.1853315751068294" fill="#FFFF00" stroke="#000000" stroke-width="1.0142417375158075" d="M 117.543 24.4927 L 132.5304 24.4927 L 132.5304 31.4511 L 117.543 31.4511 L 117.543 24.4927 Z "/>
    <g id="ID0.8101709438487887">
      <g id="ID0.1386929745785892">
        <g id="ID0.621001310646534">
          <path id="ID0.8552435426972806" fill="#FFFF00" stroke="#000000" stroke-width="0.9666666984558105" d="M 93.0167 12.5267 C 97.2835 12.5267 101.1502 14.2599 103.9506 17.0594 C 106.7501 19.8598 108.4833 23.7265 108.4833 27.9933 C 108.4833 32.2602 106.7501 36.1269 103.9506 38.9273 C 101.1502 41.7268 97.2835 43.46 93.0167 43.46 C 88.7498 43.46 84.8831 41.7268 82.0827 38.9273 C 79.2832 36.1269 77.55 32.2602 77.55 27.9933 C 77.55 23.7265 79.2832 19.8598 82.0827 17.0594 C 84.8831 14.2599 88.7498 12.5267 93.0167 12.5267 Z "/>
          <path id="ID0.6571588446386158" fill="none" stroke="#000000" stroke-width="1" stroke-linecap="round" d="M 105 18.3 L 93.25 27.85 L 105 37.6 "/>
        </g>
        <path id="ID0.8989529530517757" fill="#FF9400" stroke="#FF9400" stroke-width="1" stroke-linecap="round" d="M 106.55 37.65 L 94.75 27.85 L 106.05 18.75 C 109.813 15.72 112.595 24.157 112.7 27.95 C 112.796 31.758 110.369 37.658 106.55 37.65 Z "/>
      </g>
      <g id="ID0.9210181175731122">
        <path id="ID0.5859885630197823" fill="#FFFF00" stroke="#000000" stroke-width="1" stroke-linecap="round" d="M 17.5 12.45 L 36.5 12.45 L 36.5 31.5 L 32.5 31.5 L 32.5 43.45 L 17.55 43.45 L 17.5 12.45 Z "/>
        <path id="ID0.983115395065397" fill="#FFFF00" stroke="#000000" stroke-width="1" d="M 36.5 12.45 C 39.135 12.45 41.522 13.52 43.251 15.249 C 44.98 16.978 46.05 19.365 46.05 22 C 46.05 24.635 44.98 27.022 43.251 28.751 C 41.522 30.48 39.135 31.55 36.5 31.55 C 33.865 31.55 31.478 30.48 29.749 28.751 C 28.02 27.022 26.95 24.635 26.95 22 C 26.95 19.365 28.02 16.978 29.749 15.249 C 31.478 13.52 33.865 12.45 36.5 12.45 Z "/>
        <path id="ID0.7402148493565619" fill="#FFFF00" stroke="none" d="M 25.2 12.95 L 36.55 12.95 L 36.55 31.1 L 25.2 31.1 L 25.2 12.95 Z " stroke-width="1"/>
        <path id="ID0.480506653431803" fill="none" stroke="#000000" stroke-width="1" stroke-linecap="round" d="M 22.6 40.45 L 30.15 40.45 L 30.15 29.2 L 36.2 29.2 "/>
        <path id="ID0.26707542315125465" fill="none" stroke="#000000" stroke-width="0.9967426657676697" d="M 36.0296 14.906 C 38.0032 14.906 39.7904 15.7074 41.0851 17.0022 C 42.3799 18.2969 43.1813 20.0841 43.1813 22.0577 C 43.1813 24.0312 42.3799 25.8184 41.0851 27.1131 C 39.7904 28.4079 38.0032 29.2093 36.0296 29.2093 C 34.0561 29.2093 32.2689 28.4079 30.9742 27.1131 C 29.6794 25.8184 28.878 24.0312 28.878 22.0577 C 28.878 20.0841 29.6794 18.2969 30.9742 17.0022 C 32.2689 15.7074 34.0561 14.906 36.0296 14.906 Z "/>
        <path id="ID0.5338082029484212" fill="#FFFF00" stroke="none" d="M 28.05 14.4088 L 36.4 14.4088 L 36.4 28.7588 L 28.05 28.7588 L 28.05 14.4088 Z " stroke-width="1.0052955615122439"/>
        <path id="ID0.2131927851587534" fill="#FFFF00" stroke="none" d="M 35.85 14.3 L 41.1 14.3 L 41.1 18.25 L 35.85 18.25 L 35.85 14.3 Z " stroke-width="1"/>
        <path id="ID0.29326676949858665" fill="#FFFF00" stroke="none" d="M 40.85 16.3 L 43.35 16.3 L 43.35 22.15 L 40.85 22.15 L 40.85 16.3 Z " stroke-width="1"/>
        <path id="ID0.7690784032456577" fill="#FFFF00" stroke="none" d="M 43 19.45 L 43.85 19.45 L 43.85 22.15 L 43 22.15 L 43 19.45 Z " stroke-width="1"/>
        <path id="ID0.5714772269129753" fill="#000000" stroke="none" d="M 43.1833 21.5405 C 43.3352 21.5405 43.4725 21.6023 43.572 21.7018 C 43.6715 21.8013 43.7333 21.9386 43.7333 22.0905 C 43.7333 22.2424 43.6715 22.3796 43.572 22.4791 C 43.4725 22.5787 43.3352 22.6405 43.1833 22.6405 C 43.0314 22.6405 42.8942 22.5787 42.7947 22.4791 C 42.6951 22.3796 42.6333 22.2424 42.6333 22.0905 C 42.6333 21.9386 42.6951 21.8013 42.7947 21.7018 C 42.8942 21.6023 43.0314 21.5405 43.1833 21.5405 Z " stroke-width="1.0476189851760864"/>
        <path id="ID0.23998012207448483" fill="none" stroke="#000000" stroke-width="0.9629629254341125" stroke-linecap="round" d="M 34.813 17.4444 C 36.0648 17.4444 37.2955 17.9741 38.1487 18.8273 C 39.0018 19.6804 39.5315 20.861 39.5315 22.163 C 39.5315 23.4649 39.0028 24.6445 38.1487 25.4987 C 37.2945 26.3528 36.1149 26.8815 34.813 26.8815 C 33.511 26.8815 32.3314 26.3528 31.4772 25.4987 C 30.6231 24.6445 30.0944 23.4649 30.0944 22.163 C 30.0944 20.861 30.6241 19.6804 31.4772 18.8273 C 32.3304 17.9741 33.5611 17.4444 34.813 17.4444 Z "/>
        <path id="ID0.4069702769629657" fill="#FFFF00" stroke="none" d="M 27.9274 16.5 L 40.8274 16.5 L 40.8274 21.9 L 27.9274 21.9 L 27.9274 16.5 Z " stroke-width="0.9631011844443391"/>
        <path id="ID0.4069702769629657" fill="#FFFF00" stroke="none" stroke-linecap="round" d="M 29.4067 27.7407 L 29.3864 15.1407 L 34.7864 15.132 L 34.8067 27.732 L 29.4067 27.7407 Z " stroke-width="0.952842320988484"/>
        <path id="ID0.4114547688513994" fill="#000000" stroke="none" d="M 39.5205 21.5477 C 39.6517 21.5477 39.77 21.6013 39.8564 21.6868 C 39.9419 21.7731 39.9955 21.8915 39.9955 22.0227 C 39.9955 22.154 39.9419 22.2723 39.8564 22.3587 C 39.77 22.4442 39.6517 22.4977 39.5205 22.4977 C 39.3892 22.4977 39.2709 22.4442 39.1845 22.3587 C 39.099 22.2723 39.0455 22.154 39.0455 22.0227 C 39.0455 21.8915 39.099 21.7731 39.1845 21.6868 C 39.2709 21.6013 39.3892 21.5477 39.5205 21.5477 Z " stroke-width="0.8636363744735718"/>
        <path id="ID0.4114547688513994" fill="#000000" stroke="none" d="M 34.7705 26.3477 C 34.9017 26.3477 35.02 26.4013 35.1064 26.4868 C 35.1919 26.5731 35.2455 26.6915 35.2455 26.8227 C 35.2455 26.954 35.1919 27.0723 35.1064 27.1587 C 35.02 27.2442 34.9017 27.2977 34.7705 27.2977 C 34.6392 27.2977 34.5209 27.2442 34.4345 27.1587 C 34.349 27.0723 34.2955 26.954 34.2955 26.8227 C 34.2955 26.6915 34.349 26.5731 34.4345 26.4868 C 34.5209 26.4013 34.6392 26.3477 34.7705 26.3477 Z " stroke-width="0.8636363744735718"/>
        <path id="ID0.6622373554855585" fill="#000000" stroke="none" d="M 34.9375 20.4171 C 35.368 20.4171 35.7587 20.5923 36.0411 20.8747 C 36.3235 21.1571 36.4987 21.5478 36.4987 21.9783 C 36.4987 22.4088 36.3235 22.7995 36.0411 23.0819 C 35.7587 23.3643 35.368 23.5395 34.9375 23.5395 C 34.507 23.5395 34.1163 23.3643 33.8339 23.0819 C 33.5515 22.7995 33.3763 22.4088 33.3763 21.9783 C 33.3763 21.5478 33.5515 21.1571 33.8339 20.8747 C 34.1163 20.5923 34.507 20.4171 34.9375 20.4171 Z " stroke-width="0.5526315569877625"/>
      </g>
      <g id="ID0.5948180728591979">
        <path id="ID0.10501959035173059" fill="#FFFF00" stroke="#000000" stroke-width="1" stroke-linecap="round" d="M 41.85 43.45 L 61 12.95 L 80.15 43.45 L 41.85 43.45 Z "/>
        <g id="ID0.41977191297337413">
          <g id="ID0.3964067208580673">
            <g id="ID0.8444381318986416">
              <path id="ID0.23998012207448483" fill="none" stroke="#000000" stroke-width="0.9629629254341125" stroke-linecap="round" d="M 61.063 27.4944 C 62.3148 27.4944 63.5455 28.0241 64.3987 28.8773 C 65.2518 29.7304 65.7815 30.911 65.7815 32.213 C 65.7815 33.5149 65.2528 34.6945 64.3987 35.5487 C 63.5445 36.4028 62.3649 36.9315 61.063 36.9315 C 59.761 36.9315 58.5814 36.4028 57.7272 35.5487 C 56.8731 34.6945 56.3444 33.5149 56.3444 32.213 C 56.3444 30.911 56.8741 29.7304 57.7272 28.8773 C 58.5804 28.0241 59.8111 27.4944 61.063 27.4944 Z "/>
              <path id="ID0.4069702769629657" fill="#FFFF00" stroke="none" d="M 54.2 26.65 L 68.15 26.65 L 68.15 32.05 L 54.2 32.05 L 54.2 26.65 Z " stroke-width="1"/>
              <path id="ID0.4069702769629657" fill="#FFFF00" stroke="none" stroke-linecap="round" d="M 55.6646 39.2617 L 55.6421 25.3117 L 61.0421 25.303 L 61.0646 39.2529 L 55.6646 39.2617 Z " stroke-width="1.00000004735971"/>
            </g>
            <path id="ID0.4114547688513994" fill="#000000" stroke="none" d="M 65.7705 31.6977 C 65.9017 31.6977 66.02 31.7513 66.1064 31.8368 C 66.1919 31.9231 66.2455 32.0415 66.2455 32.1727 C 66.2455 32.304 66.1919 32.4223 66.1064 32.5087 C 66.02 32.5942 65.9017 32.6477 65.7705 32.6477 C 65.6392 32.6477 65.5209 32.5942 65.4345 32.5087 C 65.349 32.4223 65.2955 32.304 65.2955 32.1727 C 65.2955 32.0415 65.349 31.9231 65.4345 31.8368 C 65.5209 31.7513 65.6392 31.6977 65.7705 31.6977 Z " stroke-width="0.8636363744735718"/>
            <path id="ID0.4114547688513994" fill="#000000" stroke="none" d="M 61.0205 36.4477 C 61.1517 36.4477 61.27 36.5013 61.3564 36.5868 C 61.4419 36.6731 61.4955 36.7915 61.4955 36.9227 C 61.4955 37.054 61.4419 37.1723 61.3564 37.2587 C 61.27 37.3442 61.1517 37.3977 61.0205 37.3977 C 60.8892 37.3977 60.7709 37.3442 60.6845 37.2587 C 60.599 37.1723 60.5455 37.054 60.5455 36.9227 C 60.5455 36.7915 60.599 36.6731 60.6845 36.5868 C 60.7709 36.5013 60.8892 36.4477 61.0205 36.4477 Z " stroke-width="0.8636363744735718"/>
          </g>
          <path id="ID0.6622373554855585" fill="#000000" stroke="none" d="M 60.9958 29.889 C 61.6587 29.889 62.2602 30.1588 62.695 30.5936 C 63.1298 31.0284 63.3996 31.6299 63.3996 32.2928 C 63.3996 32.9556 63.1298 33.5572 62.695 33.992 C 62.2602 34.4268 61.6587 34.6965 60.9958 34.6965 C 60.333 34.6965 59.7314 34.4268 59.2966 33.992 C 58.8618 33.5572 58.5921 32.9556 58.5921 32.2928 C 58.5921 31.6299 58.8618 31.0284 59.2966 30.5936 C 59.7314 30.1588 60.333 29.889 60.9958 29.889 Z " stroke-width="0.8508771657943726"/>
          <path id="ID0.7551655485294759" fill="none" stroke="#000000" stroke-width="1" stroke-linecap="round" d="M 71.65 36.25 L 74.45 40.6 L 69.05 40.6 "/>
        </g>
      </g>
    </g>
    <g id="ID0.23748609889298677">
      <g id="ID0.7103966264985502">
        <path id="ID0.4630375890992582" fill="#FFFF00" stroke="#000000" stroke-width="1.0132594108581543" stroke-linecap="round" d="M 141.4708 13.0958 L 156.9736 27.4334 L 172.5778 13.0958 L 172.5272 43.4935 L 141.5214 43.4935 L 141.4708 13.0958 Z "/>
        <path id="ID0.7551655485294759" fill="none" stroke="#000000" stroke-width="1" stroke-linecap="round" d="M 169.45 35.65 L 169.45 40.65 L 163.75 40.65 "/>
      </g>
      <g id="ID0.7587438630871475">
        <path id="ID0.10501959035173059" fill="#FFFF00" stroke="#000000" stroke-width="1" stroke-linecap="round" d="M 173.85 43.45 L 193 12.95 L 212.15 43.45 L 173.85 43.45 Z "/>
        <g id="ID0.41977191297337413">
          <g id="ID0.3964067208580673">
            <g id="ID0.8444381318986416">
              <path id="ID0.23998012207448483" fill="none" stroke="#000000" stroke-width="0.9629629254341125" stroke-linecap="round" d="M 193.063 27.4944 C 194.3148 27.4944 195.5455 28.0241 196.3987 28.8773 C 197.2518 29.7304 197.7815 30.911 197.7815 32.213 C 197.7815 33.5149 197.2528 34.6945 196.3987 35.5487 C 195.5445 36.4028 194.3649 36.9315 193.063 36.9315 C 191.761 36.9315 190.5814 36.4028 189.7272 35.5487 C 188.8731 34.6945 188.3444 33.5149 188.3444 32.213 C 188.3444 30.911 188.8741 29.7304 189.7272 28.8773 C 190.5804 28.0241 191.8111 27.4944 193.063 27.4944 Z "/>
              <path id="ID0.4069702769629657" fill="#FFFF00" stroke="none" d="M 186.2 26.65 L 200.15 26.65 L 200.15 32.05 L 186.2 32.05 L 186.2 26.65 Z " stroke-width="1"/>
              <path id="ID0.4069702769629657" fill="#FFFF00" stroke="none" stroke-linecap="round" d="M 187.6646 39.3617 L 187.6421 25.4117 L 193.0421 25.403 L 193.0646 39.3529 L 187.6646 39.3617 Z " stroke-width="1.00000004735971"/>
            </g>
            <path id="ID0.4114547688513994" fill="#000000" stroke="none" d="M 197.7705 31.6977 C 197.9017 31.6977 198.02 31.7513 198.1064 31.8368 C 198.1919 31.9231 198.2455 32.0415 198.2455 32.1727 C 198.2455 32.304 198.1919 32.4223 198.1064 32.5087 C 198.02 32.5942 197.9017 32.6477 197.7705 32.6477 C 197.6392 32.6477 197.5209 32.5942 197.4345 32.5087 C 197.349 32.4223 197.2955 32.304 197.2955 32.1727 C 197.2955 32.0415 197.349 31.9231 197.4345 31.8368 C 197.5209 31.7513 197.6392 31.6977 197.7705 31.6977 Z " stroke-width="0.8636363744735718"/>
            <path id="ID0.4114547688513994" fill="#000000" stroke="none" d="M 193.0705 36.4477 C 193.2017 36.4477 193.32 36.5013 193.4064 36.5868 C 193.4919 36.6731 193.5455 36.7915 193.5455 36.9227 C 193.5455 37.054 193.4919 37.1723 193.4064 37.2587 C 193.32 37.3442 193.2017 37.3977 193.0705 37.3977 C 192.9392 37.3977 192.8209 37.3442 192.7345 37.2587 C 192.649 37.1723 192.5955 37.054 192.5955 36.9227 C 192.5955 36.7915 192.649 36.6731 192.7345 36.5868 C 192.8209 36.5013 192.9392 36.4477 193.0705 36.4477 Z " stroke-width="0.8636363744735718"/>
          </g>
          <path id="ID0.6622373554855585" fill="#000000" stroke="none" d="M 192.9958 29.839 C 193.6587 29.839 194.2602 30.1088 194.695 30.5436 C 195.1298 30.9784 195.3996 31.5799 195.3996 32.2428 C 195.3996 32.9056 195.1298 33.5072 194.695 33.942 C 194.2602 34.3768 193.6587 34.6465 192.9958 34.6465 C 192.333 34.6465 191.7314 34.3768 191.2966 33.942 C 190.8618 33.5072 190.5921 32.9056 190.5921 32.2428 C 190.5921 31.5799 190.8618 30.9784 191.2966 30.5436 C 191.7314 30.1088 192.333 29.839 192.9958 29.839 Z " stroke-width="0.8508771657943726"/>
          <path id="ID0.7551655485294759" fill="none" stroke="#000000" stroke-width="1" stroke-linecap="round" d="M 203.65 36.2 L 206.45 40.55 L 201.05 40.55 "/>
        </g>
      </g>
      <g id="ID0.02525188634172082">
        <path id="ID0.4630375890992582" fill="#FFFF00" stroke="#000000" stroke-width="1.0132594108581543" stroke-linecap="round" d="M 213.4708 13.1458 L 229.0243 26.9767 L 229.0243 15.071 L 244.5272 15.071 L 244.5272 43.5435 L 213.5214 43.5435 L 213.4708 13.1458 Z "/>
        <path id="ID0.7551655485294759" fill="none" stroke="#000000" stroke-width="1" stroke-linecap="round" d="M 241.5 35.65 L 241.5 40.65 L 235.8 40.65 "/>
      </g>
    </g>
  </g>
</svg>