<svg version="1.1" xmlns="http://www.w3.org/2000/svg" xmlns:xlink="http://www.w3.org/1999/xlink" width="593.58858" height="494.4895" viewBox="0,0,593.58858,494.4895"><g transform="translate(56.79429,67.24473)"><g data-paper-data="{&quot;isPaintingLayer&quot;:true}" fill-rule="nonzero" stroke="#000000" stroke-linecap="butt" stroke-linejoin="miter" stroke-miterlimit="10" stroke-dasharray="" stroke-dashoffset="0" style="mix-blend-mode: normal"><path d="M-40.78078,4.32433v-45.04505h545.04505v45.04505z" fill="#919191" stroke-width="5"/><path d="M471.23123,376.69673v-435.43544h63.06306v435.43544z" fill="#919191" stroke-width="5"/><path d="M-42.28228,358.6787v-423.42342h69.06907v423.42342z" fill="#919191" stroke-width="5"/><path d="M-54.29429,424.74478v-103.6036h554.05405v103.6036z" fill="#919191" stroke-width="5"/><path d="M116.64942,179.45654v-56.89838" fill="none" stroke-width="10"/><path d="M116.64942,102.70621v-24.69631h33.87125" fill="none" stroke-width="10"/><path d="M170.33241,78.0099h236.31701v70.65204" fill="none" stroke-width="10"/><path d="M406.64942,258.56185v-89.95941" fill="none" stroke-width="10"/><path d="M406.64942,302.5352v21.4747h-290v-91.6758" fill="none" stroke-width="10"/><path d="M114.64942,232.12298v21.88693h-34.09884" fill="none" stroke-width="10"/><path d="M60.70157,254.0099h-31.05215v-102h85v27.23973" fill="none" stroke-width="10"/><path d="M381.64942,29.88013v-32.12486h96v81h-96v-29.37103" fill="none" stroke-width="10"/><path d="M150.65237,78.75526h-10.00295v-74h45v23.87935" fill="none" stroke-width="10"/><path d="M185.64942,48.62975v30.12552h-15.44871" fill="none" stroke-width="10"/><path d="M407.27112,258.55915v-20.31439h20.16279" fill="none" stroke-width="10"/><path d="M447.41917,238.24478h21.85194v83h-62v-18.76858" fill="none" stroke-width="10"/><path d="M269.13601,203.24478h46.80096v117h-116v-117h49.42276" fill="none" stroke-width="10"/><path d="M297.20571,203.2377c0,-9.94112 8.05888,-18 18,-18c9.94113,0 18,8.05888 18,18c0,9.94113 -8.05887,18 -18,18c-9.94112,0 -18,-8.05887 -18,-18z" fill="none" stroke-width="10"/><path d="M182.20571,203.2377c0,-9.94112 8.05888,-18 18,-18c9.94113,0 18,8.05888 18,18c0,9.94113 -8.05887,18 -18,18c-9.94112,0 -18,-8.05887 -18,-18z" fill="none" stroke-width="10"/></g></g></svg>