<svg version="1.1" xmlns="http://www.w3.org/2000/svg" xmlns:xlink="http://www.w3.org/1999/xlink" width="619.60961" height="463.45346" viewBox="0,0,619.60961,463.45346"><g transform="translate(21.00601,17.94295)"><g data-paper-data="{&quot;isPaintingLayer&quot;:true}" fill-rule="nonzero" stroke="#000000" stroke-width="10" stroke-linecap="butt" stroke-linejoin="miter" stroke-miterlimit="10" stroke-dasharray="" stroke-dashoffset="0" style="mix-blend-mode: normal"><path d="M-8.49849,18.58858v-30.03003h493.99399v30.03003z" fill="#9b9b9b"/><path d="M-16.006,384.95496v-397.8979h36.03604v397.8979z" fill="#9b9b9b"/><path d="M-11.50149,419.80231v-72.6977h567.56757v72.6977z" fill="#9b9b9b"/><path d="M462.97298,374.44445v-376.87688h129.12913v376.87688z" fill="#9b9b9b"/><path d="M532.04205,440.51052v-306.30631h61.56156v306.30631z" fill="#9b9b9b"/><path d="M379.69376,228.69666c-20.13211,57.75775 -75.07311,99.20125 -139.69376,99.20125c-81.68175,0 -147.89789,-66.21614 -147.89789,-147.8979c0,-81.68175 66.21614,-147.89789 147.8979,-147.89789c72.9015,0 133.4836,52.74566 145.66559,122.15629" fill="none"/><path d="M282.96463,106.73571c30.29206,17.76302 47.52386,53.31714 40.33665,89.71375c-9.08478,46.00602 -53.74469,75.93661 -99.75072,66.85183c-46.00602,-9.08478 -75.9366,-53.7447 -66.85182,-99.75073c8.10823,-41.06068 44.55447,-69.31618 85.00387,-68.45754" fill="none"/><path d="M290.96033,192.32825c-5.09653,21.06998 -23.0364,37.59368 -45.82839,39.83597c-28.8095,2.83429 -54.46187,-18.22277 -57.29617,-47.03228c-2.83429,-28.8095 18.22278,-54.46187 47.03229,-57.29617c25.71268,-2.52962 48.91048,13.97184 55.61562,38.03057" fill="none"/></g></g></svg>