<svg version="1.1" xmlns="http://www.w3.org/2000/svg" xmlns:xlink="http://www.w3.org/1999/xlink" width="610.10961" height="453.95346" viewBox="0,0,610.10961,453.95346"><g transform="translate(17.256,13.19294)"><g data-paper-data="{&quot;isPaintingLayer&quot;:true}" fill-rule="nonzero" stroke-linecap="butt" stroke-linejoin="miter" stroke-miterlimit="10" stroke-dasharray="" stroke-dashoffset="0" style="mix-blend-mode: normal"><path d="M-9.49849,26.58858v-38.03003h493.99399v38.03003z" fill="#9b9b9b" stroke="none" stroke-width="0"/><path d="M-17.006,384.95497v-397.8979h36.03604v397.8979z" fill="#9b9b9b" stroke="#000000" stroke-width="0.5"/><path d="M-12.50149,419.80232v-72.6977h567.56757v72.6977z" fill="#9b9b9b" stroke="#000000" stroke-width="0.5"/><path d="M461.97298,374.44446v-376.87688h129.12913v376.87688z" fill="#9b9b9b" stroke="#000000" stroke-width="0.5"/><path d="M531.04205,440.51053v-306.30631h61.56156v306.30631z" fill="#9b9b9b" stroke="#000000" stroke-width="0.5"/><path d="M378.69377,228.69667c-20.13211,57.75775 -75.07311,99.20125 -139.69376,99.20125c-81.68175,0 -147.89789,-66.21614 -147.89789,-147.8979c0,-81.68175 66.21614,-147.89789 147.8979,-147.89789c72.9015,0 133.4836,52.74566 145.66559,122.15629" fill="none" stroke="#000000" stroke-width="10"/><path d="M281.96465,106.73571c30.29206,17.76302 47.52387,53.31713 40.33665,89.71375c-9.08478,46.00602 -53.7447,75.93661 -99.75073,66.85183c-46.00602,-9.08478 -75.93661,-53.7447 -66.85183,-99.75073c8.10823,-41.06068 44.55447,-69.31618 85.00387,-68.45754" fill="none" stroke="#000000" stroke-width="10"/><path d="M289.96034,192.32826c-5.09653,21.06998 -23.0364,37.59369 -45.82838,39.83598c-28.80951,2.83429 -54.46187,-18.22277 -57.29617,-47.03228c-2.83429,-28.80951 18.22277,-54.46187 47.03228,-57.29617c25.71267,-2.52963 48.91048,13.97184 55.61562,38.03056" fill="none" stroke="#000000" stroke-width="10"/></g></g></svg>