<svg version="1.1" xmlns="http://www.w3.org/2000/svg" xmlns:xlink="http://www.w3.org/1999/xlink" width="608.58858" height="509.4895" viewBox="0,0,608.58858,509.4895"><g transform="translate(59.29429,69.74473)"><g data-paper-data="{&quot;isPaintingLayer&quot;:true}" fill-rule="nonzero" stroke="#000000" stroke-width="20" stroke-linecap="butt" stroke-linejoin="miter" stroke-miterlimit="10" stroke-dasharray="" stroke-dashoffset="0" style="mix-blend-mode: normal"><path d="M-35.78078,9.32434v-45.04505h545.04505v45.04505z" fill="#919191"/><path d="M476.23123,381.69673v-435.43544h63.06306v435.43544z" fill="#919191"/><path d="M-37.28228,363.6787v-423.42342h69.06907v423.42342z" fill="#919191"/><path d="M-49.29429,429.74478v-103.6036h554.05405v103.6036z" fill="#919191"/><path d="M121.64942,184.45654v-56.89838" fill="none"/><path d="M121.64942,107.70621v-24.69631h33.87125" fill="none"/><path d="M175.33241,83.0099h236.31701v70.65204" fill="none"/><path d="M411.64942,263.56185v-89.95941" fill="none"/><path d="M411.64942,307.5352v21.4747h-290v-91.6758" fill="none"/><path d="M119.64942,237.12298v21.88693h-34.09884" fill="none"/><path d="M65.70157,259.0099h-31.05215v-102h85v27.23973" fill="none"/><path d="M386.64942,34.88013v-32.12486h96v81h-96v-29.37103" fill="none"/><path d="M155.65237,83.75526h-10.00295v-74h45v23.87935" fill="none"/><path d="M190.64942,53.62975v30.12552h-15.44871" fill="none"/><path d="M412.27112,263.55915v-20.31439h20.16279" fill="none"/><path d="M452.41917,243.24478h21.85194v83h-62v-18.76858" fill="none"/><path d="M274.13601,208.24478h46.80096v117h-116v-117h49.42276" fill="none"/><path d="M302.20571,208.2377c0,-9.94112 8.05888,-18 18,-18c9.94113,0 18,8.05888 18,18c0,9.94113 -8.05887,18 -18,18c-9.94112,0 -18,-8.05887 -18,-18z" fill="none"/><path d="M187.20571,208.2377c0,-9.94112 8.05888,-18 18,-18c9.94113,0 18,8.05888 18,18c0,9.94113 -8.05887,18 -18,18c-9.94112,0 -18,-8.05887 -18,-18z" fill="none"/></g></g></svg>